G75*
%MOIN*%
%OFA0B0*%
%FSLAX24Y24*%
%IPPOS*%
%LPD*%
%AMOC8*
5,1,8,0,0,1.08239X$1,22.5*
%
%ADD10R,0.0394X0.0551*%
%ADD11R,0.0630X0.0512*%
%ADD12R,0.0512X0.0630*%
%ADD13R,0.0515X0.0515*%
%ADD14R,0.0551X0.0394*%
%ADD15R,0.0551X0.0709*%
%ADD16R,0.0866X0.0236*%
%ADD17R,0.0591X0.0512*%
%ADD18R,0.0512X0.0591*%
%ADD19C,0.0594*%
%ADD20C,0.0554*%
%ADD21C,0.0600*%
%ADD22OC8,0.0600*%
%ADD23OC8,0.0850*%
%ADD24C,0.0160*%
%ADD25C,0.0357*%
%ADD26C,0.0400*%
%ADD27C,0.0100*%
%ADD28C,0.0560*%
D10*
X019585Y007609D03*
X020333Y007609D03*
X019959Y008475D03*
D11*
X016758Y008802D03*
X015731Y008798D03*
X015731Y009546D03*
X016758Y009550D03*
X016652Y011416D03*
X017672Y011432D03*
X017672Y012180D03*
X016652Y012164D03*
X016384Y006066D03*
X015369Y006078D03*
X014373Y006046D03*
X015369Y005330D03*
X014373Y005298D03*
X016384Y005318D03*
X017377Y005318D03*
X018365Y005322D03*
X019380Y005314D03*
X020369Y005310D03*
X020369Y006058D03*
X019380Y006062D03*
X018365Y006070D03*
X017377Y006066D03*
X021621Y006062D03*
X021621Y005314D03*
X001640Y001987D03*
X001640Y001239D03*
D12*
X001802Y002802D03*
X002550Y002802D03*
X017841Y007507D03*
X018589Y007507D03*
D13*
X008298Y006515D03*
X005298Y006515D03*
X005298Y008515D03*
X008298Y008515D03*
X008298Y010515D03*
X008298Y011515D03*
X005298Y011515D03*
X005298Y010515D03*
X005298Y004515D03*
X008298Y004515D03*
D14*
X006943Y007152D03*
X007810Y007526D03*
X006943Y007900D03*
X006798Y008704D03*
X005932Y009078D03*
X006798Y009452D03*
D15*
X007463Y010432D03*
X006125Y010432D03*
X006136Y011420D03*
X007475Y011420D03*
X003892Y010215D03*
X002554Y010215D03*
D16*
X003558Y003084D03*
X003558Y002584D03*
X003558Y002084D03*
X003558Y001584D03*
X005605Y001584D03*
X005605Y002084D03*
X005605Y002584D03*
X005605Y003084D03*
X019211Y011650D03*
X019211Y012150D03*
X019211Y012650D03*
X019211Y013150D03*
X021258Y013150D03*
X021258Y012650D03*
X021258Y012150D03*
X021258Y011650D03*
D17*
X002565Y001991D03*
X002565Y001243D03*
D18*
X002621Y003593D03*
X001873Y003593D03*
D19*
X009353Y004885D03*
X010353Y004385D03*
X011353Y004385D03*
X012353Y004385D03*
X013353Y004385D03*
X014353Y004385D03*
X015353Y004385D03*
X016353Y004385D03*
X017353Y004385D03*
X018353Y004385D03*
X019353Y004385D03*
X020353Y004385D03*
X021353Y004385D03*
X021353Y007385D03*
X021353Y008385D03*
X021353Y009385D03*
X021353Y010385D03*
X020353Y010385D03*
X019353Y010385D03*
X018353Y010385D03*
X017353Y010385D03*
X016353Y010385D03*
X015353Y010385D03*
X014353Y010385D03*
X013353Y010385D03*
X012353Y010385D03*
X011353Y010385D03*
X010353Y010385D03*
X009353Y009885D03*
X009353Y008885D03*
X009353Y007885D03*
X009353Y006885D03*
X009353Y005885D03*
X013853Y009385D03*
X014853Y009385D03*
D20*
X004396Y008546D03*
X001396Y008546D03*
X001396Y006546D03*
X004396Y006546D03*
X004396Y004546D03*
X001396Y004546D03*
X001396Y011546D03*
X004396Y011546D03*
D21*
X006636Y012789D02*
X006636Y013389D01*
X007636Y013389D02*
X007636Y012789D01*
X008636Y012789D02*
X008636Y013389D01*
X009636Y013389D02*
X009636Y012789D01*
X010636Y012789D02*
X010636Y013389D01*
X011636Y013389D02*
X011636Y012789D01*
X012636Y012789D02*
X012636Y013389D01*
X013636Y013389D02*
X013636Y012789D01*
X014636Y012789D02*
X014636Y013389D01*
X015636Y013389D02*
X015636Y012789D01*
D22*
X015794Y002641D03*
X014794Y002641D03*
X013794Y002641D03*
X012794Y002641D03*
X011794Y002641D03*
X010794Y002641D03*
X009794Y002641D03*
X008794Y002641D03*
X007794Y002641D03*
X006794Y002641D03*
X006794Y001641D03*
X007794Y001641D03*
X008794Y001641D03*
X009794Y001641D03*
X010794Y001641D03*
X011794Y001641D03*
X012794Y001641D03*
X013794Y001641D03*
X014794Y001641D03*
X015794Y001641D03*
D23*
X017396Y002341D03*
X018617Y002341D03*
X019975Y002341D03*
D24*
X001007Y002836D02*
X001007Y000913D01*
X001158Y000913D01*
X001158Y000914D01*
X001145Y000959D01*
X001145Y001191D01*
X001592Y001191D01*
X001592Y001287D01*
X001145Y001287D01*
X001145Y001519D01*
X001158Y001564D01*
X001181Y001605D01*
X001203Y001627D01*
X001165Y001665D01*
X001165Y002309D01*
X001259Y002403D01*
X001400Y002403D01*
X001400Y002406D01*
X001386Y002421D01*
X001386Y002688D01*
X001302Y002688D01*
X001207Y002688D01*
X001119Y002725D01*
X001007Y002836D01*
X001007Y002750D02*
X001093Y002750D01*
X001007Y002592D02*
X001386Y002592D01*
X001386Y002433D02*
X001007Y002433D01*
X001007Y002275D02*
X001165Y002275D01*
X001165Y002116D02*
X001007Y002116D01*
X001007Y001958D02*
X001165Y001958D01*
X001165Y001799D02*
X001007Y001799D01*
X001007Y001641D02*
X001189Y001641D01*
X001145Y001482D02*
X001007Y001482D01*
X001007Y001324D02*
X001145Y001324D01*
X001145Y001165D02*
X001007Y001165D01*
X001007Y001007D02*
X001145Y001007D01*
X001688Y001191D02*
X001688Y001287D01*
X002135Y001287D01*
X002135Y001291D01*
X002518Y001291D01*
X002518Y001195D01*
X002090Y001195D01*
X002090Y001191D01*
X001688Y001191D01*
X002613Y001195D02*
X002613Y001291D01*
X003041Y001291D01*
X003041Y001306D01*
X003055Y001298D01*
X003101Y001285D01*
X003558Y001285D01*
X004010Y001285D01*
X004010Y001160D01*
X003639Y000913D01*
X003026Y000913D01*
X003028Y000918D01*
X003041Y000963D01*
X003041Y001195D01*
X002613Y001195D01*
X003041Y001165D02*
X004010Y001165D01*
X003780Y001007D02*
X003041Y001007D01*
X003510Y001066D02*
X003558Y001113D01*
X003558Y001584D01*
X003558Y001584D01*
X003558Y001805D01*
X003558Y001805D01*
X003558Y001584D01*
X004010Y001584D01*
X004010Y001584D01*
X003558Y001584D01*
X003558Y001584D01*
X003020Y001584D01*
X003020Y001584D01*
X003558Y001584D01*
X003558Y001584D01*
X003558Y001285D01*
X003558Y001584D01*
X003558Y001584D01*
X003558Y001641D02*
X003558Y001641D01*
X003558Y001799D02*
X003558Y001799D01*
X003544Y002078D02*
X003558Y002084D01*
X003544Y002078D02*
X002987Y002078D01*
X002936Y002070D01*
X002565Y001991D01*
X001640Y001987D02*
X001640Y002767D01*
X001648Y002849D01*
X001628Y002928D02*
X001802Y002802D01*
X001640Y002767D02*
X001628Y002928D01*
X001254Y002928D01*
X001010Y003172D01*
X001010Y003912D01*
X001172Y004074D01*
X001605Y004074D01*
X001841Y004282D01*
X001841Y005062D01*
X002377Y005582D01*
X003983Y005582D01*
X004293Y005445D02*
X004404Y005445D01*
X004321Y005514D02*
X004270Y005390D01*
X004175Y005295D01*
X004050Y005243D01*
X003915Y005243D01*
X003791Y005295D01*
X003744Y005342D01*
X002750Y005342D01*
X002794Y005236D01*
X002794Y005101D01*
X002752Y005000D01*
X004303Y005014D01*
X004380Y005018D01*
X004390Y005014D01*
X004401Y005014D01*
X004404Y005013D01*
X004404Y006109D01*
X004309Y006109D01*
X004149Y006176D01*
X004026Y006299D01*
X003959Y006459D01*
X003959Y006633D01*
X004026Y006794D01*
X004149Y006917D01*
X004309Y006983D01*
X004404Y006983D01*
X004404Y008109D01*
X004309Y008109D01*
X004149Y008176D01*
X004026Y008299D01*
X003959Y008459D01*
X003959Y008633D01*
X003959Y008633D01*
X003759Y008826D01*
X003756Y008827D01*
X003724Y008859D01*
X003692Y008890D01*
X003691Y008893D01*
X003689Y008894D01*
X003671Y008936D01*
X003653Y008978D01*
X003653Y008980D01*
X003652Y008983D01*
X003652Y009028D01*
X003651Y009073D01*
X003652Y009076D01*
X003652Y009701D01*
X003550Y009701D01*
X003457Y009795D01*
X003457Y010312D01*
X002517Y011251D01*
X002451Y011251D01*
X002327Y011303D01*
X002231Y011398D01*
X002180Y011522D01*
X002180Y011657D01*
X002231Y011781D01*
X002327Y011876D01*
X002451Y011928D01*
X002586Y011928D01*
X002710Y011876D01*
X002805Y011781D01*
X002857Y011657D01*
X002857Y011590D01*
X003717Y010730D01*
X004234Y010730D01*
X004328Y010636D01*
X004328Y009795D01*
X004234Y009701D01*
X004132Y009701D01*
X004132Y009133D01*
X004294Y008977D01*
X004309Y008983D01*
X004404Y008983D01*
X004404Y009428D01*
X005583Y009428D01*
X005590Y009434D01*
X005692Y009434D01*
X005692Y009551D01*
X005728Y009639D01*
X006007Y009918D01*
X005783Y009918D01*
X005689Y010011D01*
X005689Y010165D01*
X005622Y010097D01*
X004974Y010097D01*
X004880Y010191D01*
X004880Y010838D01*
X004974Y010932D01*
X005058Y010932D01*
X005058Y011097D01*
X004974Y011097D01*
X004880Y011191D01*
X004880Y011838D01*
X004974Y011932D01*
X005622Y011932D01*
X005707Y011847D01*
X005794Y011934D01*
X006478Y011934D01*
X006572Y011841D01*
X006572Y011000D01*
X006493Y010920D01*
X006560Y010853D01*
X006560Y010077D01*
X007028Y010077D01*
X007028Y010853D01*
X007107Y010932D01*
X007039Y011000D01*
X007039Y011841D01*
X007060Y011861D01*
X006813Y011861D01*
X006725Y011898D01*
X006657Y011965D01*
X006433Y012190D01*
X006396Y012278D01*
X006396Y012391D01*
X006376Y012399D01*
X006246Y012529D01*
X006176Y012698D01*
X006176Y013481D01*
X006231Y013612D01*
X001007Y013612D01*
X001007Y011749D01*
X001026Y011794D01*
X001149Y011917D01*
X001309Y011983D01*
X001483Y011983D01*
X001644Y011917D01*
X001767Y011794D01*
X001833Y011633D01*
X001833Y011459D01*
X001767Y011299D01*
X001644Y011176D01*
X001483Y011109D01*
X001309Y011109D01*
X001149Y011176D01*
X001026Y011299D01*
X001007Y011343D01*
X001007Y008749D01*
X001026Y008794D01*
X001149Y008917D01*
X001309Y008983D01*
X001483Y008983D01*
X001644Y008917D01*
X001767Y008794D01*
X001833Y008633D01*
X001833Y008459D01*
X001767Y008299D01*
X001644Y008176D01*
X001483Y008109D01*
X001309Y008109D01*
X001149Y008176D01*
X001026Y008299D01*
X001007Y008343D01*
X001007Y006749D01*
X001026Y006794D01*
X001149Y006917D01*
X001309Y006983D01*
X001483Y006983D01*
X001644Y006917D01*
X001767Y006794D01*
X001833Y006633D01*
X001833Y006459D01*
X001767Y006299D01*
X001644Y006176D01*
X001483Y006109D01*
X001309Y006109D01*
X001149Y006176D01*
X001026Y006299D01*
X001007Y006343D01*
X001007Y004749D01*
X001026Y004794D01*
X001149Y004917D01*
X001309Y004983D01*
X001483Y004983D01*
X001601Y004934D01*
X001601Y005016D01*
X001600Y005018D01*
X001601Y005064D01*
X001601Y005110D01*
X001602Y005111D01*
X001602Y005113D01*
X001620Y005155D01*
X001638Y005198D01*
X001639Y005199D01*
X001640Y005201D01*
X001673Y005233D01*
X001705Y005265D01*
X001707Y005266D01*
X002208Y005753D01*
X002241Y005785D01*
X002242Y005786D01*
X002244Y005787D01*
X002286Y005804D01*
X002329Y005822D01*
X002331Y005822D01*
X002332Y005822D01*
X002378Y005822D01*
X003744Y005822D01*
X003791Y005868D01*
X003915Y005920D01*
X004050Y005920D01*
X004175Y005868D01*
X004270Y005773D01*
X004321Y005649D01*
X004321Y005514D01*
X004321Y005603D02*
X004404Y005603D01*
X004404Y005762D02*
X004274Y005762D01*
X004404Y005920D02*
X001007Y005920D01*
X001007Y005762D02*
X002217Y005762D01*
X002054Y005603D02*
X001007Y005603D01*
X001007Y005445D02*
X001891Y005445D01*
X001728Y005286D02*
X001007Y005286D01*
X001007Y005128D02*
X001608Y005128D01*
X001601Y004969D02*
X001517Y004969D01*
X001276Y004969D02*
X001007Y004969D01*
X001007Y004811D02*
X001043Y004811D01*
X002081Y004794D02*
X002081Y004231D01*
X002223Y004070D01*
X002619Y004065D01*
X002619Y003593D01*
X002621Y003593D01*
X002619Y004065D02*
X002904Y004062D01*
X003540Y004062D01*
X003540Y003152D01*
X003558Y003135D01*
X003558Y003084D01*
X003552Y002629D02*
X003558Y002584D01*
X003083Y002591D01*
X002550Y002802D01*
X001445Y003243D02*
X001386Y003183D01*
X001386Y003168D01*
X001354Y003168D01*
X001250Y003272D01*
X001250Y003813D01*
X001271Y003834D01*
X001437Y003834D01*
X001437Y003641D01*
X001825Y003641D01*
X001825Y003545D01*
X001437Y003545D01*
X001437Y003274D01*
X001445Y003243D01*
X001428Y003226D02*
X001296Y003226D01*
X001250Y003384D02*
X001437Y003384D01*
X001437Y003543D02*
X001250Y003543D01*
X001317Y003605D02*
X001357Y003601D01*
X001317Y003605D02*
X001873Y003593D01*
X001437Y003701D02*
X001250Y003701D01*
X002081Y004794D02*
X002455Y005168D01*
X002773Y005286D02*
X003811Y005286D01*
X004155Y005286D02*
X004404Y005286D01*
X004404Y005128D02*
X002794Y005128D01*
X004404Y006079D02*
X001007Y006079D01*
X001007Y006237D02*
X001087Y006237D01*
X001706Y006237D02*
X004087Y006237D01*
X003985Y006396D02*
X001807Y006396D01*
X001833Y006554D02*
X003959Y006554D01*
X003992Y006713D02*
X001800Y006713D01*
X001689Y006871D02*
X004103Y006871D01*
X004404Y007030D02*
X001007Y007030D01*
X001007Y007188D02*
X004404Y007188D01*
X004404Y007347D02*
X001007Y007347D01*
X001007Y007505D02*
X004404Y007505D01*
X004404Y007664D02*
X001007Y007664D01*
X001007Y007822D02*
X004404Y007822D01*
X004404Y007981D02*
X001007Y007981D01*
X001007Y008139D02*
X001236Y008139D01*
X001026Y008298D02*
X001007Y008298D01*
X001557Y008139D02*
X004236Y008139D01*
X004026Y008298D02*
X001766Y008298D01*
X001832Y008456D02*
X003960Y008456D01*
X003959Y008615D02*
X001833Y008615D01*
X001775Y008773D02*
X003813Y008773D01*
X003673Y008932D02*
X001607Y008932D01*
X001185Y008932D02*
X001007Y008932D01*
X001007Y009090D02*
X003652Y009090D01*
X003652Y009249D02*
X001007Y009249D01*
X001007Y009407D02*
X003652Y009407D01*
X003652Y009566D02*
X001007Y009566D01*
X001007Y009724D02*
X002160Y009724D01*
X002168Y009717D02*
X002209Y009693D01*
X002254Y009681D01*
X002496Y009681D01*
X002496Y010158D01*
X002098Y010158D01*
X002098Y009837D01*
X002110Y009792D01*
X002134Y009751D01*
X002168Y009717D01*
X002098Y009883D02*
X001007Y009883D01*
X001007Y010041D02*
X002098Y010041D01*
X002098Y010273D02*
X002496Y010273D01*
X002496Y010158D01*
X002611Y010158D01*
X002611Y009681D01*
X002853Y009681D01*
X002899Y009693D01*
X002940Y009717D01*
X002973Y009751D01*
X002997Y009792D01*
X003009Y009837D01*
X003009Y010158D01*
X002611Y010158D01*
X002611Y010273D01*
X002496Y010273D01*
X002496Y010750D01*
X002254Y010750D01*
X002209Y010737D01*
X002168Y010714D01*
X002134Y010680D01*
X002110Y010639D01*
X002098Y010593D01*
X002098Y010273D01*
X002098Y010358D02*
X001007Y010358D01*
X001007Y010200D02*
X002496Y010200D01*
X002611Y010200D02*
X003457Y010200D01*
X003457Y010041D02*
X003009Y010041D01*
X003009Y010273D02*
X002611Y010273D01*
X002611Y010750D01*
X002853Y010750D01*
X002899Y010737D01*
X002940Y010714D01*
X002973Y010680D01*
X002997Y010639D01*
X003009Y010593D01*
X003009Y010273D01*
X003009Y010358D02*
X003410Y010358D01*
X003251Y010517D02*
X003009Y010517D01*
X002976Y010675D02*
X003093Y010675D01*
X002934Y010834D02*
X001007Y010834D01*
X001007Y010992D02*
X002776Y010992D01*
X002617Y011151D02*
X001584Y011151D01*
X001771Y011309D02*
X002320Y011309D01*
X002202Y011468D02*
X001833Y011468D01*
X001833Y011626D02*
X002180Y011626D01*
X002235Y011785D02*
X001770Y011785D01*
X001579Y011943D02*
X004169Y011943D01*
X004157Y011937D02*
X004098Y011895D01*
X004047Y011844D01*
X004005Y011786D01*
X003973Y011722D01*
X003950Y011653D01*
X003939Y011582D01*
X003939Y011555D01*
X004388Y011555D01*
X004388Y012003D01*
X004360Y012003D01*
X004289Y011992D01*
X004221Y011970D01*
X004157Y011937D01*
X004005Y011785D02*
X002801Y011785D01*
X002857Y011626D02*
X003946Y011626D01*
X003939Y011538D02*
X003939Y011510D01*
X003950Y011439D01*
X003973Y011371D01*
X004005Y011307D01*
X004047Y011248D01*
X004098Y011197D01*
X004157Y011155D01*
X004221Y011122D01*
X004289Y011100D01*
X004360Y011089D01*
X004388Y011089D01*
X004388Y011538D01*
X003939Y011538D01*
X003946Y011468D02*
X002979Y011468D01*
X003138Y011309D02*
X004004Y011309D01*
X004165Y011151D02*
X003296Y011151D01*
X003455Y010992D02*
X005058Y010992D01*
X004920Y011151D02*
X004628Y011151D01*
X004636Y011155D02*
X004694Y011197D01*
X004745Y011248D01*
X004787Y011307D01*
X004820Y011371D01*
X004842Y011439D01*
X004853Y011510D01*
X004853Y011538D01*
X004405Y011538D01*
X004405Y011555D01*
X004388Y011555D01*
X004388Y011538D01*
X004405Y011538D01*
X004405Y011089D01*
X004432Y011089D01*
X004503Y011100D01*
X004572Y011122D01*
X004636Y011155D01*
X004789Y011309D02*
X004880Y011309D01*
X004880Y011468D02*
X004847Y011468D01*
X004853Y011555D02*
X004853Y011582D01*
X004842Y011653D01*
X004820Y011722D01*
X004787Y011786D01*
X004745Y011844D01*
X004694Y011895D01*
X004636Y011937D01*
X004572Y011970D01*
X004503Y011992D01*
X004432Y012003D01*
X004405Y012003D01*
X004405Y011555D01*
X004853Y011555D01*
X004846Y011626D02*
X004880Y011626D01*
X004880Y011785D02*
X004788Y011785D01*
X004623Y011943D02*
X006679Y011943D01*
X006572Y011785D02*
X007039Y011785D01*
X007039Y011626D02*
X006572Y011626D01*
X006572Y011468D02*
X007039Y011468D01*
X007475Y011420D02*
X007569Y011515D01*
X008298Y011515D01*
X008719Y012101D02*
X009278Y011530D01*
X009282Y011361D01*
X009302Y011397D01*
X009479Y011904D02*
X008664Y012719D01*
X008664Y013062D01*
X008636Y013089D01*
X008719Y012101D02*
X006861Y012101D01*
X006636Y012326D01*
X006636Y013089D01*
X006176Y013053D02*
X001007Y013053D01*
X001007Y013211D02*
X006176Y013211D01*
X006176Y013370D02*
X001007Y013370D01*
X001007Y013528D02*
X006196Y013528D01*
X006176Y012894D02*
X001007Y012894D01*
X001007Y012736D02*
X006176Y012736D01*
X006226Y012577D02*
X001007Y012577D01*
X001007Y012419D02*
X006356Y012419D01*
X006404Y012260D02*
X001007Y012260D01*
X001007Y012102D02*
X006521Y012102D01*
X006042Y011515D02*
X006136Y011420D01*
X006042Y011515D02*
X005298Y011515D01*
X005298Y010515D01*
X006042Y010515D01*
X006125Y010432D01*
X006560Y010358D02*
X007028Y010358D01*
X007028Y010200D02*
X006560Y010200D01*
X006560Y010517D02*
X007028Y010517D01*
X007028Y010675D02*
X006560Y010675D01*
X006560Y010834D02*
X007028Y010834D01*
X007046Y010992D02*
X006565Y010992D01*
X006572Y011151D02*
X007039Y011151D01*
X007039Y011309D02*
X006572Y011309D01*
X007463Y010432D02*
X008191Y010432D01*
X008298Y010515D01*
X008298Y009739D02*
X009282Y010723D01*
X010010Y010727D01*
X010353Y010385D01*
X010861Y010881D01*
X014967Y010881D01*
X015428Y011341D01*
X015439Y011341D01*
X016097Y011999D01*
X016097Y012495D01*
X016349Y012719D01*
X016672Y012727D01*
X016676Y012692D01*
X016652Y012164D01*
X016676Y012204D01*
X017188Y012093D02*
X017251Y012156D01*
X017648Y012156D01*
X017672Y012180D01*
X017188Y012093D02*
X017188Y011499D01*
X017105Y011416D01*
X016652Y011416D01*
X016617Y011408D01*
X016652Y011416D02*
X016723Y011353D01*
X016585Y011385D01*
X016357Y011204D01*
X015703Y011204D01*
X015353Y010853D01*
X015353Y010385D01*
X015771Y010200D02*
X015935Y010200D01*
X015966Y010126D02*
X016094Y009997D01*
X016262Y009928D01*
X016339Y009928D01*
X016283Y009872D01*
X016283Y009790D01*
X016206Y009790D01*
X016206Y009868D01*
X016112Y009962D01*
X015526Y009962D01*
X015612Y009997D01*
X015740Y010126D01*
X015810Y010294D01*
X015810Y010476D01*
X015740Y010644D01*
X015612Y010772D01*
X015611Y010772D01*
X015803Y010964D01*
X016343Y010964D01*
X016377Y010960D01*
X016390Y010964D01*
X016405Y010964D01*
X016436Y010977D01*
X016469Y010986D01*
X016480Y010995D01*
X016493Y011000D01*
X016493Y011000D01*
X017033Y011000D01*
X017127Y011094D01*
X017127Y011176D01*
X017153Y011176D01*
X017177Y011186D01*
X017177Y011152D01*
X017189Y011107D01*
X017213Y011066D01*
X017246Y011032D01*
X017287Y011008D01*
X017333Y010996D01*
X017624Y010996D01*
X017624Y011384D01*
X017720Y011384D01*
X017720Y010996D01*
X018010Y010996D01*
X018056Y011008D01*
X018097Y011032D01*
X018131Y011066D01*
X018154Y011107D01*
X018167Y011152D01*
X018167Y011262D01*
X018193Y011236D01*
X018317Y011184D01*
X018452Y011184D01*
X018576Y011236D01*
X018671Y011331D01*
X018695Y011389D01*
X018712Y011372D01*
X019710Y011372D01*
X019804Y011466D01*
X019804Y011835D01*
X019752Y011887D01*
X019755Y011888D01*
X019788Y011922D01*
X019812Y011963D01*
X019824Y012009D01*
X019824Y012150D01*
X019211Y012150D01*
X019211Y011929D01*
X019211Y011929D01*
X019211Y012150D01*
X019211Y012150D01*
X018766Y012150D01*
X018766Y012150D01*
X019211Y012150D01*
X019211Y012150D01*
X019211Y012150D01*
X019824Y012150D01*
X019824Y012292D01*
X019812Y012338D01*
X019788Y012379D01*
X019767Y012400D01*
X019788Y012422D01*
X019812Y012463D01*
X019824Y012509D01*
X019824Y012650D01*
X019211Y012650D01*
X019211Y012650D01*
X019211Y012150D01*
X019211Y012150D01*
X019211Y012449D01*
X019211Y012650D01*
X018766Y012650D01*
X018766Y012650D01*
X019211Y012650D01*
X019211Y012650D01*
X019211Y012650D01*
X019824Y012650D01*
X019824Y012792D01*
X019812Y012838D01*
X019788Y012879D01*
X019755Y012913D01*
X019752Y012914D01*
X019804Y012966D01*
X019804Y013335D01*
X019710Y013429D01*
X018712Y013429D01*
X018618Y013335D01*
X018618Y012966D01*
X018670Y012914D01*
X018668Y012913D01*
X018662Y012919D01*
X018649Y012924D01*
X018238Y013253D01*
X018213Y013277D01*
X018200Y013282D01*
X018190Y013291D01*
X018157Y013301D01*
X018125Y013314D01*
X018111Y013314D01*
X018098Y013318D01*
X018064Y013314D01*
X016096Y013314D01*
X016096Y013481D01*
X016042Y013612D01*
X021974Y013612D01*
X021974Y006478D01*
X021239Y006478D01*
X021146Y006384D01*
X021146Y006343D01*
X021074Y006373D01*
X020939Y006373D01*
X020844Y006333D01*
X020844Y006380D01*
X020750Y006474D01*
X020688Y006474D01*
X020715Y006538D01*
X020715Y006673D01*
X020663Y006797D01*
X020568Y006892D01*
X020444Y006944D01*
X020309Y006944D01*
X020203Y006900D01*
X020390Y007087D01*
X020458Y007154D01*
X020466Y007174D01*
X020596Y007174D01*
X020690Y007267D01*
X020690Y007951D01*
X020596Y008045D01*
X020227Y008045D01*
X020316Y008133D01*
X020316Y008817D01*
X020222Y008911D01*
X020195Y008911D01*
X020195Y008969D01*
X020242Y009016D01*
X020294Y009140D01*
X020294Y009275D01*
X020242Y009399D01*
X020147Y009494D01*
X020023Y009546D01*
X019888Y009546D01*
X019764Y009494D01*
X019668Y009399D01*
X019617Y009275D01*
X019617Y009140D01*
X019668Y009016D01*
X019715Y008969D01*
X019715Y008911D01*
X019696Y008911D01*
X019602Y008817D01*
X019602Y008133D01*
X019691Y008045D01*
X019322Y008045D01*
X019228Y007951D01*
X019228Y007747D01*
X019005Y007747D01*
X019005Y007888D01*
X018911Y007982D01*
X018267Y007982D01*
X018229Y007944D01*
X018207Y007966D01*
X018166Y007989D01*
X018121Y008002D01*
X017889Y008002D01*
X017889Y007555D01*
X017793Y007555D01*
X017793Y008002D01*
X017561Y008002D01*
X017516Y007989D01*
X017475Y007966D01*
X017441Y007932D01*
X017417Y007891D01*
X017405Y007845D01*
X017405Y007555D01*
X017793Y007555D01*
X017793Y007459D01*
X017405Y007459D01*
X017405Y007168D01*
X017417Y007122D01*
X017441Y007081D01*
X017475Y007048D01*
X017516Y007024D01*
X017561Y007012D01*
X017793Y007012D01*
X017793Y007459D01*
X017889Y007459D01*
X017889Y007012D01*
X018121Y007012D01*
X018166Y007024D01*
X018207Y007048D01*
X018229Y007070D01*
X018267Y007032D01*
X018785Y007032D01*
X018739Y006921D01*
X018739Y006786D01*
X018775Y006698D01*
X018717Y006639D01*
X018695Y006618D01*
X018695Y006676D01*
X018644Y006801D01*
X018549Y006896D01*
X018424Y006948D01*
X018289Y006948D01*
X018165Y006896D01*
X018070Y006801D01*
X018018Y006676D01*
X018018Y006542D01*
X018042Y006486D01*
X017983Y006486D01*
X017890Y006392D01*
X017890Y005748D01*
X017942Y005696D01*
X017890Y005644D01*
X017890Y005000D01*
X017983Y004906D01*
X018113Y004906D01*
X018113Y004780D01*
X018094Y004772D01*
X017966Y004644D01*
X017896Y004476D01*
X017896Y004294D01*
X017966Y004126D01*
X018094Y003997D01*
X018262Y003928D01*
X018444Y003928D01*
X018612Y003997D01*
X018613Y003999D01*
X018613Y003579D01*
X018474Y003440D01*
X016305Y003440D01*
X016217Y003403D01*
X016149Y003336D01*
X015914Y003101D01*
X015603Y003101D01*
X015383Y002881D01*
X015204Y002881D01*
X014984Y003101D01*
X014603Y003101D01*
X014334Y002831D01*
X014334Y002450D01*
X014603Y002181D01*
X014984Y002181D01*
X015204Y002401D01*
X015383Y002401D01*
X015603Y002181D01*
X015984Y002181D01*
X016254Y002450D01*
X016254Y002761D01*
X016452Y002960D01*
X017981Y002960D01*
X017869Y002837D01*
X017871Y002723D01*
X017647Y002946D01*
X017416Y002946D01*
X017416Y002361D01*
X017376Y002361D01*
X017376Y002321D01*
X016791Y002321D01*
X016791Y002127D01*
X014054Y002133D01*
X014056Y002057D01*
X013993Y002121D01*
X013814Y002121D01*
X013814Y001661D01*
X013774Y001661D01*
X013774Y002121D01*
X013595Y002121D01*
X013314Y001839D01*
X013314Y001661D01*
X013774Y001661D01*
X013774Y001621D01*
X013314Y001621D01*
X013314Y001489D01*
X013274Y001489D01*
X013274Y001621D01*
X012814Y001621D01*
X012814Y001661D01*
X012774Y001661D01*
X012774Y002121D01*
X012595Y002121D01*
X012509Y002034D01*
X012510Y002246D01*
X012595Y002161D01*
X012774Y002161D01*
X012774Y002621D01*
X012814Y002621D01*
X012814Y002661D01*
X012774Y002661D01*
X012774Y003121D01*
X012595Y003121D01*
X012513Y003039D01*
X012514Y003353D01*
X011799Y004267D01*
X011810Y004294D01*
X011810Y004476D01*
X011740Y004644D01*
X011612Y004772D01*
X011444Y004842D01*
X011349Y004842D01*
X011321Y004877D01*
X010042Y004857D01*
X009861Y004873D01*
X009861Y005612D01*
X009901Y005516D01*
X009996Y005421D01*
X010120Y005369D01*
X010255Y005369D01*
X010379Y005421D01*
X010474Y005516D01*
X010526Y005640D01*
X010526Y005673D01*
X010570Y005567D01*
X010665Y005472D01*
X010789Y005420D01*
X010924Y005420D01*
X011049Y005472D01*
X011144Y005567D01*
X011195Y005691D01*
X011195Y005722D01*
X011618Y006061D01*
X011678Y006086D01*
X011774Y006181D01*
X011825Y006306D01*
X011825Y006440D01*
X011774Y006565D01*
X011697Y006641D01*
X012279Y006641D01*
X012319Y006638D01*
X012326Y006641D01*
X012334Y006641D01*
X012371Y006656D01*
X012409Y006670D01*
X012415Y006674D01*
X012422Y006677D01*
X012451Y006706D01*
X012897Y007101D01*
X015519Y007101D01*
X015523Y007100D01*
X015566Y007101D01*
X015609Y007101D01*
X015614Y007103D01*
X015619Y007103D01*
X015658Y007121D01*
X015697Y007138D01*
X015701Y007141D01*
X015705Y007143D01*
X015735Y007175D01*
X015765Y007205D01*
X015767Y007210D01*
X016395Y007889D01*
X017094Y007889D01*
X017182Y007925D01*
X017249Y007993D01*
X017556Y008300D01*
X017593Y008388D01*
X017593Y009990D01*
X017612Y009997D01*
X017740Y010126D01*
X017810Y010294D01*
X017810Y010476D01*
X017740Y010644D01*
X017612Y010772D01*
X017444Y010842D01*
X017262Y010842D01*
X017094Y010772D01*
X016966Y010644D01*
X016896Y010476D01*
X016896Y010294D01*
X016966Y010126D01*
X017094Y009997D01*
X017113Y009990D01*
X017113Y009966D01*
X016994Y009966D01*
X016994Y010019D01*
X016958Y010107D01*
X016890Y010175D01*
X016798Y010267D01*
X016810Y010294D01*
X016810Y010476D01*
X016740Y010644D01*
X016612Y010772D01*
X016444Y010842D01*
X016262Y010842D01*
X016094Y010772D01*
X015966Y010644D01*
X015896Y010476D01*
X015896Y010294D01*
X015966Y010126D01*
X016050Y010041D02*
X015656Y010041D01*
X015810Y010358D02*
X015896Y010358D01*
X015913Y010517D02*
X015793Y010517D01*
X015708Y010675D02*
X015998Y010675D01*
X016244Y010834D02*
X015673Y010834D01*
X016353Y010385D02*
X016353Y010373D01*
X016754Y009971D01*
X016754Y009554D01*
X016758Y009550D01*
X015735Y009550D01*
X015731Y009546D01*
X016206Y009310D02*
X016283Y009310D01*
X016283Y009228D01*
X016321Y009190D01*
X016299Y009168D01*
X016276Y009127D01*
X016263Y009082D01*
X016263Y008850D01*
X016710Y008850D01*
X016710Y008754D01*
X016263Y008754D01*
X016263Y008522D01*
X016276Y008477D01*
X016299Y008436D01*
X016333Y008402D01*
X016374Y008378D01*
X016410Y008369D01*
X016333Y008369D01*
X016328Y008370D01*
X016285Y008369D01*
X016242Y008369D01*
X016238Y008367D01*
X016233Y008367D01*
X016194Y008349D01*
X016154Y008332D01*
X016151Y008329D01*
X016146Y008327D01*
X016117Y008295D01*
X016086Y008265D01*
X016085Y008260D01*
X015457Y007581D01*
X012813Y007581D01*
X012772Y007584D01*
X012765Y007581D01*
X012758Y007581D01*
X012720Y007566D01*
X012682Y007553D01*
X012677Y007548D01*
X012670Y007545D01*
X012641Y007516D01*
X012195Y007121D01*
X011345Y007121D01*
X011256Y007084D01*
X011189Y007017D01*
X010218Y006046D01*
X010120Y006046D01*
X009996Y005994D01*
X009901Y005899D01*
X009861Y005803D01*
X009861Y007408D01*
X008674Y007382D01*
X008691Y007424D01*
X008691Y007558D01*
X008640Y007683D01*
X008545Y007778D01*
X008420Y007829D01*
X008286Y007829D01*
X008229Y007806D01*
X008151Y007883D01*
X007468Y007883D01*
X007399Y007815D01*
X007399Y007882D01*
X007160Y007882D01*
X007160Y007919D01*
X007399Y007919D01*
X007399Y008121D01*
X007387Y008167D01*
X007363Y008208D01*
X007330Y008241D01*
X007288Y008265D01*
X007243Y008277D01*
X007160Y008277D01*
X007160Y008349D01*
X007184Y008363D01*
X007217Y008396D01*
X007241Y008437D01*
X007253Y008483D01*
X007253Y008685D01*
X007138Y008685D01*
X007119Y008722D01*
X007253Y008722D01*
X007253Y008924D01*
X007241Y008970D01*
X007217Y009011D01*
X007184Y009045D01*
X007143Y009068D01*
X007097Y009080D01*
X006940Y009080D01*
X006933Y009095D01*
X007140Y009095D01*
X007233Y009189D01*
X007233Y009212D01*
X007581Y009212D01*
X007589Y009209D01*
X007629Y009212D01*
X007668Y009212D01*
X007676Y009215D01*
X007684Y009215D01*
X007720Y009233D01*
X007757Y009248D01*
X007762Y009254D01*
X007770Y009258D01*
X007796Y009288D01*
X007824Y009316D01*
X007827Y009323D01*
X007836Y009334D01*
X007881Y009334D01*
X008005Y009385D01*
X008058Y009438D01*
X008058Y008932D01*
X007974Y008932D01*
X007880Y008838D01*
X007880Y008191D01*
X007974Y008097D01*
X008622Y008097D01*
X008715Y008191D01*
X008715Y008838D01*
X008622Y008932D01*
X008878Y008932D01*
X008876Y008922D02*
X008876Y008903D01*
X009334Y008903D01*
X009334Y008866D01*
X008876Y008866D01*
X008876Y008847D01*
X008888Y008773D01*
X008911Y008702D01*
X008945Y008635D01*
X008989Y008574D01*
X009042Y008521D01*
X009103Y008477D01*
X009170Y008443D01*
X009241Y008420D01*
X009315Y008408D01*
X009334Y008408D01*
X009334Y008866D01*
X009371Y008866D01*
X009371Y008408D01*
X009390Y008408D01*
X009465Y008420D01*
X009536Y008443D01*
X009603Y008477D01*
X009664Y008521D01*
X009717Y008574D01*
X009761Y008635D01*
X009795Y008702D01*
X009818Y008773D01*
X009830Y008847D01*
X009830Y008866D01*
X009371Y008866D01*
X009371Y008903D01*
X009334Y008903D01*
X009334Y009362D01*
X009315Y009362D01*
X009241Y009350D01*
X009170Y009327D01*
X009103Y009293D01*
X009042Y009248D01*
X008989Y009195D01*
X008945Y009135D01*
X008911Y009068D01*
X008888Y008996D01*
X008876Y008922D01*
X008888Y008773D02*
X008715Y008773D01*
X008715Y008615D02*
X008959Y008615D01*
X009143Y008456D02*
X008715Y008456D01*
X008715Y008298D02*
X009157Y008298D01*
X009094Y008272D02*
X008966Y008144D01*
X008896Y007976D01*
X008896Y007794D01*
X008966Y007626D01*
X009094Y007497D01*
X009262Y007428D01*
X009444Y007428D01*
X009612Y007497D01*
X009740Y007626D01*
X009748Y007645D01*
X010603Y007645D01*
X010554Y007596D01*
X010503Y007472D01*
X010503Y007337D01*
X010554Y007213D01*
X010649Y007118D01*
X010774Y007066D01*
X010908Y007066D01*
X011033Y007118D01*
X011128Y007213D01*
X011141Y007245D01*
X011634Y007239D01*
X011671Y007236D01*
X011682Y007239D01*
X011693Y007239D01*
X011727Y007252D01*
X011762Y007263D01*
X011771Y007270D01*
X011782Y007274D01*
X011808Y007300D01*
X012588Y007932D01*
X015137Y007932D01*
X015225Y007969D01*
X015293Y008036D01*
X015639Y008382D01*
X016112Y008382D01*
X016206Y008476D01*
X016206Y009120D01*
X016154Y009172D01*
X016206Y009224D01*
X016206Y009310D01*
X016206Y009249D02*
X016283Y009249D01*
X016266Y009090D02*
X016206Y009090D01*
X016206Y008932D02*
X016263Y008932D01*
X016206Y008773D02*
X016710Y008773D01*
X016263Y008615D02*
X016206Y008615D01*
X016186Y008456D02*
X016287Y008456D01*
X016119Y008298D02*
X015554Y008298D01*
X015396Y008139D02*
X015973Y008139D01*
X015826Y007981D02*
X015237Y007981D01*
X015680Y007822D02*
X012452Y007822D01*
X012257Y007664D02*
X015533Y007664D01*
X015562Y007341D02*
X012806Y007341D01*
X012286Y006881D01*
X011392Y006881D01*
X010219Y005708D01*
X010188Y005708D01*
X010511Y005603D02*
X010555Y005603D01*
X010857Y005759D02*
X011491Y006267D01*
X011487Y006373D01*
X011797Y006237D02*
X013898Y006237D01*
X013898Y006368D02*
X013898Y005724D01*
X013949Y005672D01*
X013898Y005620D01*
X013898Y004976D01*
X013991Y004882D01*
X014113Y004882D01*
X014113Y004780D01*
X014094Y004772D01*
X013966Y004644D01*
X013896Y004476D01*
X013896Y004294D01*
X013966Y004126D01*
X014094Y003997D01*
X014262Y003928D01*
X014444Y003928D01*
X014612Y003997D01*
X014740Y004126D01*
X014810Y004294D01*
X014810Y004476D01*
X014740Y004644D01*
X014612Y004772D01*
X014593Y004780D01*
X014593Y004882D01*
X014754Y004882D01*
X014848Y004976D01*
X014848Y005620D01*
X014796Y005672D01*
X014848Y005724D01*
X014848Y006368D01*
X014754Y006462D01*
X014703Y006462D01*
X014727Y006518D01*
X014727Y006653D01*
X014675Y006777D01*
X014580Y006872D01*
X014456Y006924D01*
X014321Y006924D01*
X014197Y006872D01*
X014101Y006777D01*
X014050Y006653D01*
X014050Y006518D01*
X014073Y006462D01*
X013991Y006462D01*
X013898Y006368D01*
X013925Y006396D02*
X011825Y006396D01*
X011778Y006554D02*
X014050Y006554D01*
X014075Y006713D02*
X012458Y006713D01*
X012637Y006871D02*
X014196Y006871D01*
X014388Y006586D02*
X014388Y006046D01*
X014373Y006046D01*
X014848Y006079D02*
X014894Y006079D01*
X014894Y006237D02*
X014848Y006237D01*
X014820Y006396D02*
X014894Y006396D01*
X014894Y006400D02*
X014894Y005755D01*
X014946Y005704D01*
X014894Y005652D01*
X014894Y005007D01*
X014987Y004914D01*
X015113Y004914D01*
X015113Y004780D01*
X015094Y004772D01*
X014966Y004644D01*
X014896Y004476D01*
X014896Y004294D01*
X014966Y004126D01*
X015094Y003997D01*
X015262Y003928D01*
X015444Y003928D01*
X015612Y003997D01*
X015740Y004126D01*
X015810Y004294D01*
X015810Y004476D01*
X015740Y004644D01*
X015612Y004772D01*
X015593Y004780D01*
X015593Y004914D01*
X015750Y004914D01*
X015844Y005007D01*
X015844Y005652D01*
X015792Y005704D01*
X015844Y005755D01*
X015844Y006400D01*
X015750Y006494D01*
X015712Y006494D01*
X015731Y006538D01*
X015731Y006673D01*
X015679Y006797D01*
X015584Y006892D01*
X015460Y006944D01*
X015325Y006944D01*
X015201Y006892D01*
X015105Y006797D01*
X015054Y006673D01*
X015054Y006538D01*
X015072Y006494D01*
X014987Y006494D01*
X014894Y006400D01*
X015054Y006554D02*
X014727Y006554D01*
X014702Y006713D02*
X015071Y006713D01*
X015180Y006871D02*
X014581Y006871D01*
X015369Y006582D02*
X015392Y006605D01*
X015369Y006582D02*
X015369Y006078D01*
X015844Y006079D02*
X015909Y006079D01*
X015909Y006237D02*
X015844Y006237D01*
X015844Y006396D02*
X015917Y006396D01*
X015909Y006388D02*
X015909Y005744D01*
X015961Y005692D01*
X015909Y005640D01*
X015909Y004996D01*
X016003Y004902D01*
X016113Y004902D01*
X016113Y004780D01*
X016094Y004772D01*
X015966Y004644D01*
X015896Y004476D01*
X015896Y004294D01*
X015966Y004126D01*
X016094Y003997D01*
X016262Y003928D01*
X016444Y003928D01*
X016612Y003997D01*
X016740Y004126D01*
X016810Y004294D01*
X016810Y004476D01*
X016740Y004644D01*
X016612Y004772D01*
X016593Y004780D01*
X016593Y004902D01*
X016766Y004902D01*
X016859Y004996D01*
X016859Y005640D01*
X016807Y005692D01*
X016859Y005744D01*
X016859Y006388D01*
X016766Y006482D01*
X016683Y006482D01*
X016731Y006597D01*
X016731Y006732D01*
X016679Y006856D01*
X016584Y006951D01*
X016460Y007003D01*
X016325Y007003D01*
X016201Y006951D01*
X016105Y006856D01*
X016054Y006732D01*
X016054Y006597D01*
X016102Y006482D01*
X016003Y006482D01*
X015909Y006388D01*
X016071Y006554D02*
X015731Y006554D01*
X015714Y006713D02*
X016054Y006713D01*
X016121Y006871D02*
X015605Y006871D01*
X015748Y007188D02*
X017405Y007188D01*
X017405Y007347D02*
X015894Y007347D01*
X016040Y007505D02*
X017793Y007505D01*
X017793Y007347D02*
X017889Y007347D01*
X017889Y007188D02*
X017793Y007188D01*
X017793Y007030D02*
X017889Y007030D01*
X018177Y007030D02*
X018784Y007030D01*
X018739Y006871D02*
X018573Y006871D01*
X018680Y006713D02*
X018769Y006713D01*
X018853Y006436D02*
X019077Y006660D01*
X019077Y006853D01*
X018853Y006436D02*
X018853Y003479D01*
X018573Y003200D01*
X016353Y003200D01*
X015794Y002641D01*
X014794Y002641D01*
X014334Y002592D02*
X014274Y002592D01*
X014274Y002621D02*
X013814Y002621D01*
X013814Y002661D01*
X013774Y002661D01*
X013774Y003121D01*
X013595Y003121D01*
X013314Y002839D01*
X013314Y002661D01*
X013774Y002661D01*
X013774Y002621D01*
X013314Y002621D01*
X013314Y002442D01*
X013595Y002161D01*
X013774Y002161D01*
X013774Y002621D01*
X013814Y002621D01*
X013814Y002161D01*
X013993Y002161D01*
X014274Y002442D01*
X014274Y002621D01*
X014274Y002661D02*
X014274Y002839D01*
X013993Y003121D01*
X013814Y003121D01*
X013814Y002661D01*
X014274Y002661D01*
X014274Y002750D02*
X014334Y002750D01*
X014412Y002909D02*
X014204Y002909D01*
X014046Y003067D02*
X014570Y003067D01*
X015018Y003067D02*
X015570Y003067D01*
X015412Y002909D02*
X015176Y002909D01*
X016040Y003226D02*
X012514Y003226D01*
X012513Y003067D02*
X012542Y003067D01*
X012774Y003067D02*
X012814Y003067D01*
X012814Y003121D02*
X012814Y002661D01*
X013274Y002661D01*
X013274Y002839D01*
X012993Y003121D01*
X012814Y003121D01*
X012814Y002909D02*
X012774Y002909D01*
X012774Y002750D02*
X012814Y002750D01*
X012814Y002621D02*
X013274Y002621D01*
X013274Y002442D01*
X012993Y002161D01*
X012814Y002161D01*
X012814Y002621D01*
X012814Y002592D02*
X012774Y002592D01*
X012774Y002433D02*
X012814Y002433D01*
X012814Y002275D02*
X012774Y002275D01*
X012774Y002116D02*
X012814Y002116D01*
X012814Y002121D02*
X012814Y001661D01*
X013274Y001661D01*
X013274Y001839D01*
X012993Y002121D01*
X012814Y002121D01*
X012814Y001958D02*
X012774Y001958D01*
X012774Y001799D02*
X012814Y001799D01*
X012814Y001641D02*
X013774Y001641D01*
X013774Y001799D02*
X013814Y001799D01*
X013814Y001958D02*
X013774Y001958D01*
X013774Y002116D02*
X013814Y002116D01*
X013814Y002275D02*
X013774Y002275D01*
X013774Y002433D02*
X013814Y002433D01*
X013481Y002275D02*
X013107Y002275D01*
X012997Y002116D02*
X013591Y002116D01*
X013432Y001958D02*
X013155Y001958D01*
X013274Y001799D02*
X013314Y001799D01*
X013997Y002116D02*
X014054Y002116D01*
X014107Y002275D02*
X014509Y002275D01*
X014350Y002433D02*
X014265Y002433D01*
X013814Y002592D02*
X013774Y002592D01*
X013774Y002750D02*
X013814Y002750D01*
X013814Y002909D02*
X013774Y002909D01*
X013774Y003067D02*
X013814Y003067D01*
X013542Y003067D02*
X013046Y003067D01*
X013204Y002909D02*
X013383Y002909D01*
X013314Y002750D02*
X013274Y002750D01*
X013274Y002592D02*
X013314Y002592D01*
X013322Y002433D02*
X013265Y002433D01*
X012591Y002116D02*
X012509Y002116D01*
X012490Y003384D02*
X016198Y003384D01*
X016149Y003336D02*
X016149Y003336D01*
X016402Y002909D02*
X017108Y002909D01*
X017146Y002946D02*
X016791Y002592D01*
X016791Y002361D01*
X017376Y002361D01*
X017376Y002946D01*
X017146Y002946D01*
X017376Y002909D02*
X017416Y002909D01*
X017416Y002750D02*
X017376Y002750D01*
X017376Y002592D02*
X017416Y002592D01*
X017416Y002433D02*
X017376Y002433D01*
X016950Y002750D02*
X016254Y002750D01*
X016254Y002592D02*
X016791Y002592D01*
X016791Y002433D02*
X016237Y002433D01*
X016079Y002275D02*
X016791Y002275D01*
X017684Y002909D02*
X017934Y002909D01*
X017870Y002750D02*
X017843Y002750D01*
X018577Y003543D02*
X012366Y003543D01*
X012242Y003701D02*
X018613Y003701D01*
X018613Y003860D02*
X012118Y003860D01*
X012094Y003997D02*
X012262Y003928D01*
X012444Y003928D01*
X012612Y003997D01*
X012740Y004126D01*
X012810Y004294D01*
X012810Y004476D01*
X012740Y004644D01*
X012612Y004772D01*
X012444Y004842D01*
X012262Y004842D01*
X012094Y004772D01*
X011966Y004644D01*
X011896Y004476D01*
X011896Y004294D01*
X011966Y004126D01*
X012094Y003997D01*
X012073Y004018D02*
X011993Y004018D01*
X011944Y004177D02*
X011869Y004177D01*
X011896Y004335D02*
X011810Y004335D01*
X011802Y004494D02*
X011904Y004494D01*
X011974Y004652D02*
X011731Y004652D01*
X011518Y004811D02*
X012188Y004811D01*
X012518Y004811D02*
X013139Y004811D01*
X013170Y004827D02*
X013103Y004793D01*
X013042Y004748D01*
X012989Y004695D01*
X012945Y004635D01*
X012911Y004568D01*
X012888Y004496D01*
X012876Y004422D01*
X012876Y004403D01*
X013334Y004403D01*
X013334Y004366D01*
X012876Y004366D01*
X012876Y004347D01*
X012888Y004273D01*
X012911Y004202D01*
X012945Y004135D01*
X012989Y004074D01*
X013042Y004021D01*
X013103Y003977D01*
X013170Y003943D01*
X013241Y003920D01*
X013315Y003908D01*
X013334Y003908D01*
X013334Y004366D01*
X013371Y004366D01*
X013371Y003908D01*
X013390Y003908D01*
X013465Y003920D01*
X013536Y003943D01*
X013603Y003977D01*
X013664Y004021D01*
X013717Y004074D01*
X013761Y004135D01*
X013795Y004202D01*
X013818Y004273D01*
X013830Y004347D01*
X013830Y004366D01*
X013371Y004366D01*
X013371Y004403D01*
X013334Y004403D01*
X013334Y004862D01*
X013315Y004862D01*
X013241Y004850D01*
X013170Y004827D01*
X013334Y004811D02*
X013371Y004811D01*
X013371Y004862D02*
X013371Y004403D01*
X013830Y004403D01*
X013830Y004422D01*
X013818Y004496D01*
X013795Y004568D01*
X013761Y004635D01*
X013717Y004695D01*
X013664Y004748D01*
X013603Y004793D01*
X013536Y004827D01*
X013465Y004850D01*
X013390Y004862D01*
X013371Y004862D01*
X013567Y004811D02*
X014113Y004811D01*
X013974Y004652D02*
X013748Y004652D01*
X013818Y004494D02*
X013904Y004494D01*
X013896Y004335D02*
X013828Y004335D01*
X013782Y004177D02*
X013944Y004177D01*
X014073Y004018D02*
X013660Y004018D01*
X013371Y004018D02*
X013334Y004018D01*
X013334Y004177D02*
X013371Y004177D01*
X013371Y004335D02*
X013334Y004335D01*
X013334Y004494D02*
X013371Y004494D01*
X013371Y004652D02*
X013334Y004652D01*
X012958Y004652D02*
X012731Y004652D01*
X012802Y004494D02*
X012887Y004494D01*
X012878Y004335D02*
X012810Y004335D01*
X012761Y004177D02*
X012924Y004177D01*
X013046Y004018D02*
X012633Y004018D01*
X013904Y004969D02*
X009861Y004969D01*
X009861Y005128D02*
X013898Y005128D01*
X013898Y005286D02*
X009861Y005286D01*
X009861Y005445D02*
X009972Y005445D01*
X009864Y005603D02*
X009861Y005603D01*
X009861Y005920D02*
X009922Y005920D01*
X009861Y006079D02*
X010251Y006079D01*
X010409Y006237D02*
X009861Y006237D01*
X009861Y006396D02*
X010568Y006396D01*
X010726Y006554D02*
X009861Y006554D01*
X009861Y006713D02*
X010885Y006713D01*
X011043Y006871D02*
X009861Y006871D01*
X009861Y007030D02*
X011202Y007030D01*
X011104Y007188D02*
X012271Y007188D01*
X012450Y007347D02*
X011866Y007347D01*
X012061Y007505D02*
X012629Y007505D01*
X012816Y007030D02*
X017506Y007030D01*
X017428Y007003D02*
X017293Y007003D01*
X017169Y006951D01*
X017074Y006856D01*
X017022Y006732D01*
X017022Y006597D01*
X017070Y006482D01*
X016995Y006482D01*
X016902Y006388D01*
X016902Y005744D01*
X016953Y005692D01*
X016902Y005640D01*
X016902Y004996D01*
X016995Y004902D01*
X017113Y004902D01*
X017113Y004780D01*
X017094Y004772D01*
X016966Y004644D01*
X016896Y004476D01*
X016896Y004294D01*
X016966Y004126D01*
X017094Y003997D01*
X017262Y003928D01*
X017444Y003928D01*
X017612Y003997D01*
X017740Y004126D01*
X017810Y004294D01*
X017810Y004476D01*
X017740Y004644D01*
X017612Y004772D01*
X017593Y004780D01*
X017593Y004902D01*
X017758Y004902D01*
X017851Y004996D01*
X017851Y005640D01*
X017800Y005692D01*
X017851Y005744D01*
X017851Y006388D01*
X017758Y006482D01*
X017651Y006482D01*
X017699Y006597D01*
X017699Y006732D01*
X017648Y006856D01*
X017552Y006951D01*
X017428Y007003D01*
X017632Y006871D02*
X018141Y006871D01*
X018034Y006713D02*
X017699Y006713D01*
X017682Y006554D02*
X018018Y006554D01*
X017894Y006396D02*
X017844Y006396D01*
X017851Y006237D02*
X017890Y006237D01*
X017890Y006079D02*
X017851Y006079D01*
X017851Y005920D02*
X017890Y005920D01*
X017890Y005762D02*
X017851Y005762D01*
X017851Y005603D02*
X017890Y005603D01*
X017890Y005445D02*
X017851Y005445D01*
X017851Y005286D02*
X017890Y005286D01*
X017890Y005128D02*
X017851Y005128D01*
X017825Y004969D02*
X017920Y004969D01*
X018113Y004811D02*
X017593Y004811D01*
X017731Y004652D02*
X017974Y004652D01*
X017904Y004494D02*
X017802Y004494D01*
X017810Y004335D02*
X017896Y004335D01*
X017944Y004177D02*
X017761Y004177D01*
X017633Y004018D02*
X018073Y004018D01*
X018353Y004385D02*
X018353Y005310D01*
X018365Y005322D01*
X017377Y005318D02*
X017353Y005294D01*
X017353Y004385D01*
X016944Y004177D02*
X016761Y004177D01*
X016810Y004335D02*
X016896Y004335D01*
X016904Y004494D02*
X016802Y004494D01*
X016731Y004652D02*
X016974Y004652D01*
X017113Y004811D02*
X016593Y004811D01*
X016833Y004969D02*
X016928Y004969D01*
X016902Y005128D02*
X016859Y005128D01*
X016859Y005286D02*
X016902Y005286D01*
X016902Y005445D02*
X016859Y005445D01*
X016859Y005603D02*
X016902Y005603D01*
X016902Y005762D02*
X016859Y005762D01*
X016859Y005920D02*
X016902Y005920D01*
X016902Y006079D02*
X016859Y006079D01*
X016859Y006237D02*
X016902Y006237D01*
X016909Y006396D02*
X016851Y006396D01*
X016713Y006554D02*
X017040Y006554D01*
X017022Y006713D02*
X016731Y006713D01*
X016664Y006871D02*
X017089Y006871D01*
X017361Y006664D02*
X017377Y006649D01*
X017377Y006066D01*
X018365Y006070D02*
X018365Y006601D01*
X018357Y006609D01*
X019380Y006412D02*
X019380Y006062D01*
X019380Y006412D02*
X019924Y006956D01*
X019924Y006960D01*
X020254Y007290D01*
X020254Y007530D01*
X020333Y007609D01*
X020690Y007664D02*
X020966Y007664D01*
X020945Y007635D02*
X020911Y007568D01*
X020888Y007496D01*
X020876Y007422D01*
X020876Y007403D01*
X021334Y007403D01*
X021334Y007366D01*
X020876Y007366D01*
X020876Y007347D01*
X020690Y007347D01*
X020690Y007505D02*
X020891Y007505D01*
X020945Y007635D02*
X020989Y007695D01*
X021042Y007748D01*
X021103Y007793D01*
X021170Y007827D01*
X021241Y007850D01*
X021315Y007862D01*
X021334Y007862D01*
X021334Y007403D01*
X021371Y007403D01*
X021371Y007862D01*
X021390Y007862D01*
X021465Y007850D01*
X021536Y007827D01*
X021603Y007793D01*
X021664Y007748D01*
X021717Y007695D01*
X021761Y007635D01*
X021795Y007568D01*
X021818Y007496D01*
X021830Y007422D01*
X021830Y007403D01*
X021371Y007403D01*
X021371Y007366D01*
X021371Y006908D01*
X021390Y006908D01*
X021465Y006920D01*
X021536Y006943D01*
X021603Y006977D01*
X021664Y007021D01*
X021717Y007074D01*
X021761Y007135D01*
X021795Y007202D01*
X021818Y007273D01*
X021830Y007347D01*
X021974Y007347D01*
X021830Y007347D02*
X021830Y007366D01*
X021371Y007366D01*
X021334Y007366D01*
X021334Y006908D01*
X021315Y006908D01*
X021241Y006920D01*
X021170Y006943D01*
X021103Y006977D01*
X021042Y007021D01*
X020989Y007074D01*
X020945Y007135D01*
X020911Y007202D01*
X020888Y007273D01*
X020876Y007347D01*
X020918Y007188D02*
X020611Y007188D01*
X020334Y007030D02*
X021033Y007030D01*
X021334Y007030D02*
X021371Y007030D01*
X021371Y007188D02*
X021334Y007188D01*
X021334Y007347D02*
X021371Y007347D01*
X021371Y007505D02*
X021334Y007505D01*
X021334Y007664D02*
X021371Y007664D01*
X021371Y007822D02*
X021334Y007822D01*
X021262Y007928D02*
X021444Y007928D01*
X021612Y007997D01*
X021740Y008126D01*
X021810Y008294D01*
X021810Y008476D01*
X021740Y008644D01*
X021612Y008772D01*
X021444Y008842D01*
X021262Y008842D01*
X021094Y008772D01*
X020966Y008644D01*
X020896Y008476D01*
X020896Y008294D01*
X020966Y008126D01*
X021094Y007997D01*
X021262Y007928D01*
X021134Y007981D02*
X020660Y007981D01*
X020690Y007822D02*
X021162Y007822D01*
X021544Y007822D02*
X021974Y007822D01*
X021974Y007664D02*
X021739Y007664D01*
X021815Y007505D02*
X021974Y007505D01*
X021974Y007188D02*
X021788Y007188D01*
X021672Y007030D02*
X021974Y007030D01*
X021974Y006871D02*
X020589Y006871D01*
X020698Y006713D02*
X021974Y006713D01*
X021974Y006554D02*
X020715Y006554D01*
X020828Y006396D02*
X021157Y006396D01*
X021006Y006034D02*
X021593Y006034D01*
X021621Y006062D01*
X021345Y006050D01*
X021353Y005310D02*
X021621Y005314D01*
X021353Y005310D02*
X021353Y004385D01*
X020353Y004385D02*
X020353Y005294D01*
X020369Y005310D01*
X019380Y005314D02*
X019353Y005286D01*
X019353Y004385D01*
X017073Y004018D02*
X016633Y004018D01*
X016353Y004385D02*
X016353Y005286D01*
X016384Y005318D01*
X015909Y005286D02*
X015844Y005286D01*
X015844Y005128D02*
X015909Y005128D01*
X015936Y004969D02*
X015806Y004969D01*
X015593Y004811D02*
X016113Y004811D01*
X015974Y004652D02*
X015731Y004652D01*
X015802Y004494D02*
X015904Y004494D01*
X015896Y004335D02*
X015810Y004335D01*
X015761Y004177D02*
X015944Y004177D01*
X016073Y004018D02*
X015633Y004018D01*
X015353Y004385D02*
X015353Y005314D01*
X015369Y005330D01*
X014894Y005286D02*
X014848Y005286D01*
X014848Y005128D02*
X014894Y005128D01*
X014932Y004969D02*
X014841Y004969D01*
X014593Y004811D02*
X015113Y004811D01*
X014974Y004652D02*
X014731Y004652D01*
X014802Y004494D02*
X014904Y004494D01*
X014896Y004335D02*
X014810Y004335D01*
X014761Y004177D02*
X014944Y004177D01*
X015073Y004018D02*
X014633Y004018D01*
X014353Y004385D02*
X014353Y005278D01*
X014373Y005298D01*
X014848Y005445D02*
X014894Y005445D01*
X014894Y005603D02*
X014848Y005603D01*
X014848Y005762D02*
X014894Y005762D01*
X014894Y005920D02*
X014848Y005920D01*
X013898Y005920D02*
X011442Y005920D01*
X011618Y006061D02*
X011618Y006061D01*
X011661Y006079D02*
X013898Y006079D01*
X013898Y005762D02*
X011245Y005762D01*
X011159Y005603D02*
X013898Y005603D01*
X013898Y005445D02*
X010984Y005445D01*
X010730Y005445D02*
X010403Y005445D01*
X010578Y007188D02*
X009861Y007188D01*
X009861Y007347D02*
X010503Y007347D01*
X010517Y007505D02*
X009620Y007505D01*
X009353Y007885D02*
X011306Y007885D01*
X013365Y009944D01*
X013365Y010373D01*
X013353Y010385D01*
X012935Y010200D02*
X012771Y010200D01*
X012740Y010126D02*
X012810Y010294D01*
X012810Y010476D01*
X012741Y010641D01*
X012964Y010641D01*
X012896Y010476D01*
X012896Y010294D01*
X012966Y010126D01*
X013087Y010005D01*
X011206Y008125D01*
X009748Y008125D01*
X009740Y008144D01*
X009612Y008272D01*
X009444Y008342D01*
X009262Y008342D01*
X009094Y008272D01*
X008964Y008139D02*
X008664Y008139D01*
X008898Y007981D02*
X007399Y007981D01*
X007394Y008139D02*
X007932Y008139D01*
X007880Y008298D02*
X007160Y008298D01*
X007246Y008456D02*
X007880Y008456D01*
X007880Y008615D02*
X007253Y008615D01*
X007253Y008773D02*
X007880Y008773D01*
X007974Y008932D02*
X007251Y008932D01*
X006935Y009090D02*
X008058Y009090D01*
X008058Y009249D02*
X007757Y009249D01*
X007621Y009452D02*
X007814Y009672D01*
X007719Y009649D01*
X007447Y009987D02*
X007298Y009837D01*
X006266Y009837D01*
X005932Y009503D01*
X005932Y009078D01*
X005698Y009566D02*
X004132Y009566D01*
X004132Y009407D02*
X004404Y009407D01*
X004404Y009249D02*
X004132Y009249D01*
X004176Y009090D02*
X004404Y009090D01*
X003892Y009030D02*
X004396Y008546D01*
X003892Y009030D02*
X003892Y010215D01*
X002518Y011589D01*
X003613Y010834D02*
X004880Y010834D01*
X004880Y010675D02*
X004288Y010675D01*
X004328Y010517D02*
X004880Y010517D01*
X004880Y010358D02*
X004328Y010358D01*
X004328Y010200D02*
X004880Y010200D01*
X004328Y010041D02*
X005689Y010041D01*
X005972Y009883D02*
X004328Y009883D01*
X004257Y009724D02*
X005814Y009724D01*
X006798Y009452D02*
X007621Y009452D01*
X008027Y009407D02*
X008058Y009407D01*
X008298Y009739D02*
X008298Y008515D01*
X008538Y008932D02*
X008538Y009640D01*
X008912Y010014D01*
X008896Y009976D01*
X008896Y009794D01*
X008966Y009626D01*
X009094Y009497D01*
X009262Y009428D01*
X009444Y009428D01*
X009612Y009497D01*
X009740Y009626D01*
X009810Y009794D01*
X009810Y009976D01*
X009740Y010144D01*
X009612Y010272D01*
X009444Y010342D01*
X009262Y010342D01*
X009224Y010326D01*
X009382Y010484D01*
X009901Y010487D01*
X009896Y010476D01*
X009896Y010294D01*
X009966Y010126D01*
X010094Y009997D01*
X010262Y009928D01*
X010444Y009928D01*
X010612Y009997D01*
X010740Y010126D01*
X010810Y010294D01*
X010810Y010476D01*
X010804Y010490D01*
X010938Y010621D01*
X010911Y010568D01*
X010888Y010496D01*
X010876Y010422D01*
X010876Y010403D01*
X011334Y010403D01*
X011334Y010366D01*
X010876Y010366D01*
X010876Y010347D01*
X010888Y010273D01*
X010911Y010202D01*
X010945Y010135D01*
X010989Y010074D01*
X011042Y010021D01*
X011103Y009977D01*
X011170Y009943D01*
X011241Y009920D01*
X011315Y009908D01*
X011334Y009908D01*
X011334Y010366D01*
X011371Y010366D01*
X011371Y009908D01*
X011390Y009908D01*
X011465Y009920D01*
X011536Y009943D01*
X011603Y009977D01*
X011664Y010021D01*
X011717Y010074D01*
X011761Y010135D01*
X011795Y010202D01*
X011818Y010273D01*
X011830Y010347D01*
X011830Y010366D01*
X011371Y010366D01*
X011371Y010403D01*
X011371Y010641D01*
X011334Y010641D01*
X011334Y010403D01*
X011371Y010403D01*
X011830Y010403D01*
X011830Y010422D01*
X011818Y010496D01*
X011795Y010568D01*
X011761Y010635D01*
X011756Y010641D01*
X011964Y010641D01*
X011896Y010476D01*
X011896Y010294D01*
X011966Y010126D01*
X012094Y009997D01*
X012262Y009928D01*
X012444Y009928D01*
X012612Y009997D01*
X012740Y010126D01*
X012656Y010041D02*
X013050Y010041D01*
X012964Y009883D02*
X009810Y009883D01*
X009781Y009724D02*
X012806Y009724D01*
X012647Y009566D02*
X009680Y009566D01*
X009536Y009327D02*
X009465Y009350D01*
X009390Y009362D01*
X009371Y009362D01*
X009371Y008903D01*
X009830Y008903D01*
X009830Y008922D01*
X009818Y008996D01*
X009795Y009068D01*
X009761Y009135D01*
X009717Y009195D01*
X009664Y009248D01*
X009603Y009293D01*
X009536Y009327D01*
X009663Y009249D02*
X012330Y009249D01*
X012172Y009090D02*
X009783Y009090D01*
X009828Y008932D02*
X012013Y008932D01*
X011855Y008773D02*
X009818Y008773D01*
X009746Y008615D02*
X011696Y008615D01*
X011538Y008456D02*
X009563Y008456D01*
X009549Y008298D02*
X011379Y008298D01*
X011221Y008139D02*
X009742Y008139D01*
X009371Y008456D02*
X009334Y008456D01*
X009334Y008615D02*
X009371Y008615D01*
X009371Y008773D02*
X009334Y008773D01*
X009334Y008932D02*
X009371Y008932D01*
X009371Y009090D02*
X009334Y009090D01*
X009334Y009249D02*
X009371Y009249D01*
X009043Y009249D02*
X008538Y009249D01*
X008538Y009407D02*
X012489Y009407D01*
X012050Y010041D02*
X011684Y010041D01*
X011794Y010200D02*
X011935Y010200D01*
X011896Y010358D02*
X011830Y010358D01*
X011811Y010517D02*
X011913Y010517D01*
X011371Y010517D02*
X011334Y010517D01*
X011334Y010358D02*
X011371Y010358D01*
X011371Y010200D02*
X011334Y010200D01*
X011334Y010041D02*
X011371Y010041D01*
X011022Y010041D02*
X010656Y010041D01*
X010771Y010200D02*
X010912Y010200D01*
X010876Y010358D02*
X010810Y010358D01*
X010832Y010517D02*
X010894Y010517D01*
X010050Y010041D02*
X009782Y010041D01*
X009684Y010200D02*
X009935Y010200D01*
X009896Y010358D02*
X009257Y010358D01*
X008896Y009883D02*
X008781Y009883D01*
X008925Y009724D02*
X008623Y009724D01*
X008538Y009566D02*
X009026Y009566D01*
X008923Y009090D02*
X008538Y009090D01*
X008538Y008932D02*
X008622Y008932D01*
X007447Y009987D02*
X007447Y010416D01*
X007463Y010432D01*
X009479Y011904D02*
X009711Y011904D01*
X010644Y012267D02*
X010644Y013082D01*
X010636Y013089D01*
X010644Y012267D02*
X011664Y011247D01*
X013892Y011247D01*
X014306Y011645D02*
X014081Y011822D01*
X012979Y011814D01*
X012648Y012145D01*
X012648Y013078D01*
X012636Y013089D01*
X014617Y013070D02*
X014617Y012282D01*
X014841Y012058D01*
X014841Y011353D01*
X016477Y010992D02*
X021974Y010992D01*
X021974Y010834D02*
X021462Y010834D01*
X021444Y010842D02*
X021262Y010842D01*
X021094Y010772D01*
X020966Y010644D01*
X020896Y010476D01*
X020896Y010294D01*
X020966Y010126D01*
X021094Y009997D01*
X021262Y009928D01*
X021444Y009928D01*
X021612Y009997D01*
X021740Y010126D01*
X021810Y010294D01*
X021810Y010476D01*
X021740Y010644D01*
X021612Y010772D01*
X021444Y010842D01*
X021357Y010932D02*
X021270Y011019D01*
X021357Y010932D02*
X021506Y011101D01*
X021758Y011372D02*
X021851Y011466D01*
X021851Y011835D01*
X021799Y011887D01*
X021802Y011888D01*
X021835Y011922D01*
X021859Y011963D01*
X021871Y012009D01*
X021871Y012150D01*
X021258Y012150D01*
X021258Y011929D01*
X021258Y011929D01*
X021258Y012150D01*
X021258Y012150D01*
X020645Y012150D01*
X020645Y012009D01*
X020658Y011963D01*
X020681Y011922D01*
X020715Y011888D01*
X020717Y011887D01*
X020703Y011873D01*
X020629Y011873D01*
X020494Y012008D01*
X020494Y012709D01*
X020541Y012756D01*
X020593Y012880D01*
X020593Y013015D01*
X020541Y013139D01*
X020446Y013235D01*
X020322Y013286D01*
X020187Y013286D01*
X020063Y013235D01*
X019968Y013139D01*
X019916Y013015D01*
X019916Y012880D01*
X019968Y012756D01*
X020014Y012709D01*
X020014Y011861D01*
X020051Y011772D01*
X020327Y011497D01*
X020394Y011429D01*
X020482Y011393D01*
X020739Y011393D01*
X020759Y011372D01*
X021758Y011372D01*
X021851Y011468D02*
X021974Y011468D01*
X021974Y011626D02*
X021851Y011626D01*
X021851Y011785D02*
X021974Y011785D01*
X021974Y011943D02*
X021848Y011943D01*
X021871Y012102D02*
X021974Y012102D01*
X021871Y012150D02*
X021871Y012292D01*
X021859Y012338D01*
X021835Y012379D01*
X021814Y012400D01*
X021835Y012422D01*
X021859Y012463D01*
X021871Y012509D01*
X021871Y012650D01*
X021258Y012650D01*
X021258Y012650D01*
X021258Y012150D01*
X021258Y012150D01*
X020645Y012150D01*
X020645Y012292D01*
X020658Y012338D01*
X020681Y012379D01*
X020703Y012400D01*
X020681Y012422D01*
X020658Y012463D01*
X020645Y012509D01*
X020645Y012650D01*
X021258Y012650D01*
X021258Y012650D01*
X021258Y012449D01*
X021258Y012150D01*
X021258Y012150D01*
X021258Y012150D01*
X021871Y012150D01*
X021871Y012260D02*
X021974Y012260D01*
X021974Y012419D02*
X021833Y012419D01*
X021871Y012577D02*
X021974Y012577D01*
X021871Y012650D02*
X021871Y012792D01*
X021859Y012838D01*
X021835Y012879D01*
X021802Y012913D01*
X021799Y012914D01*
X021851Y012966D01*
X021851Y013335D01*
X021758Y013429D01*
X020759Y013429D01*
X020665Y013335D01*
X020665Y012966D01*
X020717Y012914D01*
X020715Y012913D01*
X020681Y012879D01*
X020658Y012838D01*
X020645Y012792D01*
X020645Y012650D01*
X021258Y012650D01*
X021258Y012650D01*
X021258Y012872D01*
X021258Y012872D01*
X021258Y012650D01*
X021258Y012650D01*
X021871Y012650D01*
X021871Y012736D02*
X021974Y012736D01*
X021974Y012894D02*
X021820Y012894D01*
X021851Y013053D02*
X021974Y013053D01*
X021974Y013211D02*
X021851Y013211D01*
X021816Y013370D02*
X021974Y013370D01*
X021974Y013528D02*
X016077Y013528D01*
X016096Y013370D02*
X018653Y013370D01*
X018618Y013211D02*
X018289Y013211D01*
X018077Y013074D02*
X015652Y013074D01*
X015636Y013089D01*
X014636Y013089D02*
X014617Y013070D01*
X017624Y011309D02*
X017720Y011309D01*
X017720Y011151D02*
X017624Y011151D01*
X017462Y010834D02*
X018244Y010834D01*
X018262Y010842D02*
X018094Y010772D01*
X017966Y010644D01*
X017896Y010476D01*
X017896Y010294D01*
X017966Y010126D01*
X018094Y009997D01*
X018262Y009928D01*
X018444Y009928D01*
X018612Y009997D01*
X018740Y010126D01*
X018810Y010294D01*
X018810Y010476D01*
X018740Y010644D01*
X018612Y010772D01*
X018444Y010842D01*
X018262Y010842D01*
X018462Y010834D02*
X019244Y010834D01*
X019262Y010842D02*
X019094Y010772D01*
X018966Y010644D01*
X018896Y010476D01*
X018896Y010294D01*
X018966Y010126D01*
X019094Y009997D01*
X019262Y009928D01*
X019444Y009928D01*
X019612Y009997D01*
X019740Y010126D01*
X019810Y010294D01*
X019810Y010476D01*
X019740Y010644D01*
X019612Y010772D01*
X019444Y010842D01*
X019262Y010842D01*
X019462Y010834D02*
X020244Y010834D01*
X020262Y010842D02*
X020094Y010772D01*
X019966Y010644D01*
X019896Y010476D01*
X019896Y010294D01*
X019966Y010126D01*
X020094Y009997D01*
X020262Y009928D01*
X020444Y009928D01*
X020612Y009997D01*
X020740Y010126D01*
X020810Y010294D01*
X020810Y010476D01*
X020740Y010644D01*
X020612Y010772D01*
X020444Y010842D01*
X020262Y010842D01*
X020462Y010834D02*
X021244Y010834D01*
X020998Y010675D02*
X020708Y010675D01*
X020793Y010517D02*
X020913Y010517D01*
X020896Y010358D02*
X020810Y010358D01*
X020771Y010200D02*
X020935Y010200D01*
X021050Y010041D02*
X020656Y010041D01*
X020966Y009644D02*
X021094Y009772D01*
X021262Y009842D01*
X021444Y009842D01*
X021612Y009772D01*
X021740Y009644D01*
X021810Y009476D01*
X021810Y009294D01*
X021740Y009126D01*
X021612Y008997D01*
X021444Y008928D01*
X021262Y008928D01*
X021094Y008997D01*
X020966Y009126D01*
X020896Y009294D01*
X020896Y009476D01*
X020966Y009644D01*
X020933Y009566D02*
X017593Y009566D01*
X017593Y009724D02*
X021046Y009724D01*
X020896Y009407D02*
X020234Y009407D01*
X020294Y009249D02*
X020915Y009249D01*
X021001Y009090D02*
X020273Y009090D01*
X020195Y008932D02*
X021252Y008932D01*
X021454Y008932D02*
X021974Y008932D01*
X021974Y009090D02*
X021705Y009090D01*
X021791Y009249D02*
X021974Y009249D01*
X021974Y009407D02*
X021810Y009407D01*
X021772Y009566D02*
X021974Y009566D01*
X021974Y009724D02*
X021659Y009724D01*
X021974Y009883D02*
X017593Y009883D01*
X017656Y010041D02*
X018050Y010041D01*
X017935Y010200D02*
X017771Y010200D01*
X017810Y010358D02*
X017896Y010358D01*
X017913Y010517D02*
X017793Y010517D01*
X017708Y010675D02*
X017998Y010675D01*
X017353Y010385D02*
X017353Y008436D01*
X017046Y008129D01*
X016290Y008129D01*
X015562Y007341D01*
X016187Y007664D02*
X017405Y007664D01*
X017405Y007822D02*
X016333Y007822D01*
X017237Y007981D02*
X017501Y007981D01*
X017396Y008139D02*
X019602Y008139D01*
X019602Y008298D02*
X017554Y008298D01*
X017593Y008456D02*
X019602Y008456D01*
X019602Y008615D02*
X017593Y008615D01*
X017593Y008773D02*
X019602Y008773D01*
X019715Y008932D02*
X017593Y008932D01*
X017593Y009090D02*
X019637Y009090D01*
X019617Y009249D02*
X017593Y009249D01*
X017593Y009407D02*
X019677Y009407D01*
X019955Y009208D02*
X019955Y008479D01*
X019959Y008475D01*
X020316Y008456D02*
X020896Y008456D01*
X020896Y008298D02*
X020316Y008298D01*
X020316Y008139D02*
X020960Y008139D01*
X021572Y007981D02*
X021974Y007981D01*
X021974Y008139D02*
X021746Y008139D01*
X021810Y008298D02*
X021974Y008298D01*
X021974Y008456D02*
X021810Y008456D01*
X021752Y008615D02*
X021974Y008615D01*
X021974Y008773D02*
X021608Y008773D01*
X021097Y008773D02*
X020316Y008773D01*
X020316Y008615D02*
X020954Y008615D01*
X019585Y007609D02*
X019483Y007507D01*
X018589Y007507D01*
X019005Y007822D02*
X019228Y007822D01*
X019258Y007981D02*
X018912Y007981D01*
X018266Y007981D02*
X018181Y007981D01*
X017889Y007981D02*
X017793Y007981D01*
X017793Y007822D02*
X017889Y007822D01*
X017889Y007664D02*
X017793Y007664D01*
X016392Y006664D02*
X016384Y006656D01*
X016384Y006066D01*
X015909Y005920D02*
X015844Y005920D01*
X015844Y005762D02*
X015909Y005762D01*
X015909Y005603D02*
X015844Y005603D01*
X015844Y005445D02*
X015909Y005445D01*
X012502Y008172D02*
X011648Y007479D01*
X010920Y007487D01*
X010841Y007404D01*
X012502Y008172D02*
X015089Y008172D01*
X015715Y008798D01*
X015731Y008798D01*
X016191Y009883D02*
X016294Y009883D01*
X016865Y010200D02*
X016935Y010200D01*
X016896Y010358D02*
X016810Y010358D01*
X016793Y010517D02*
X016913Y010517D01*
X016998Y010675D02*
X016708Y010675D01*
X016462Y010834D02*
X017244Y010834D01*
X017177Y011151D02*
X017127Y011151D01*
X018166Y011151D02*
X021974Y011151D01*
X021974Y011309D02*
X018650Y011309D01*
X018384Y011523D02*
X018512Y011650D01*
X018662Y011650D01*
X018526Y011794D01*
X018526Y012715D01*
X018077Y013074D01*
X018488Y013053D02*
X018618Y013053D01*
X019211Y012872D02*
X019211Y012650D01*
X019211Y012650D01*
X019211Y012872D01*
X019211Y012872D01*
X019211Y012736D02*
X019211Y012736D01*
X019211Y012577D02*
X019211Y012577D01*
X019211Y012419D02*
X019211Y012419D01*
X019211Y012260D02*
X019211Y012260D01*
X019211Y012102D02*
X019211Y012102D01*
X019211Y011943D02*
X019211Y011943D01*
X019211Y011650D02*
X018662Y011650D01*
X019804Y011626D02*
X020197Y011626D01*
X020046Y011785D02*
X019804Y011785D01*
X019801Y011943D02*
X020014Y011943D01*
X020014Y012102D02*
X019824Y012102D01*
X019824Y012260D02*
X020014Y012260D01*
X020014Y012419D02*
X019785Y012419D01*
X019824Y012577D02*
X020014Y012577D01*
X019988Y012736D02*
X019824Y012736D01*
X019773Y012894D02*
X019916Y012894D01*
X020254Y012948D02*
X020254Y011908D01*
X020530Y011633D01*
X021241Y011633D01*
X021258Y011650D01*
X020918Y011654D01*
X020669Y011943D02*
X020559Y011943D01*
X020494Y012102D02*
X020645Y012102D01*
X020645Y012260D02*
X020494Y012260D01*
X020494Y012419D02*
X020684Y012419D01*
X020645Y012577D02*
X020494Y012577D01*
X020521Y012736D02*
X020645Y012736D01*
X020593Y012894D02*
X020697Y012894D01*
X020665Y013053D02*
X020577Y013053D01*
X020665Y013211D02*
X020469Y013211D01*
X020700Y013370D02*
X019769Y013370D01*
X019804Y013211D02*
X020040Y013211D01*
X019932Y013053D02*
X019804Y013053D01*
X021258Y012736D02*
X021258Y012736D01*
X021258Y012577D02*
X021258Y012577D01*
X021258Y012419D02*
X021258Y012419D01*
X021258Y012260D02*
X021258Y012260D01*
X021258Y012102D02*
X021258Y012102D01*
X021258Y011943D02*
X021258Y011943D01*
X020355Y011468D02*
X019804Y011468D01*
X019708Y010675D02*
X019998Y010675D01*
X019913Y010517D02*
X019793Y010517D01*
X019810Y010358D02*
X019896Y010358D01*
X019935Y010200D02*
X019771Y010200D01*
X019656Y010041D02*
X020050Y010041D01*
X019050Y010041D02*
X018656Y010041D01*
X018771Y010200D02*
X018935Y010200D01*
X018896Y010358D02*
X018810Y010358D01*
X018793Y010517D02*
X018913Y010517D01*
X018998Y010675D02*
X018708Y010675D01*
X017050Y010041D02*
X016985Y010041D01*
X012913Y010517D02*
X012793Y010517D01*
X012810Y010358D02*
X012896Y010358D01*
X008896Y007822D02*
X008437Y007822D01*
X008269Y007822D02*
X008212Y007822D01*
X008648Y007664D02*
X008950Y007664D01*
X009086Y007505D02*
X008691Y007505D01*
X008353Y007491D02*
X007983Y007507D01*
X007810Y007526D01*
X007407Y007822D02*
X007399Y007822D01*
X006943Y007900D02*
X006943Y008558D01*
X006798Y008704D01*
X006943Y007900D02*
X006790Y007747D01*
X006365Y007747D01*
X006377Y007145D02*
X006593Y007117D01*
X006916Y007125D01*
X006943Y007152D01*
X003527Y009724D02*
X002947Y009724D01*
X003009Y009883D02*
X003457Y009883D01*
X002611Y009883D02*
X002496Y009883D01*
X002496Y009724D02*
X002611Y009724D01*
X002611Y010041D02*
X002496Y010041D01*
X002496Y010358D02*
X002611Y010358D01*
X002611Y010517D02*
X002496Y010517D01*
X002496Y010675D02*
X002611Y010675D01*
X002131Y010675D02*
X001007Y010675D01*
X001007Y010517D02*
X002098Y010517D01*
X001208Y011151D02*
X001007Y011151D01*
X001007Y011309D02*
X001021Y011309D01*
X001007Y011785D02*
X001022Y011785D01*
X001007Y011943D02*
X001213Y011943D01*
X004388Y011943D02*
X004405Y011943D01*
X004388Y011785D02*
X004405Y011785D01*
X004388Y011626D02*
X004405Y011626D01*
X004388Y011468D02*
X004405Y011468D01*
X004388Y011309D02*
X004405Y011309D01*
X004388Y011151D02*
X004405Y011151D01*
X001017Y008773D02*
X001007Y008773D01*
X001007Y006871D02*
X001103Y006871D01*
X003558Y001482D02*
X003558Y001482D01*
X003558Y001324D02*
X003558Y001324D01*
X015079Y002275D02*
X015509Y002275D01*
X020369Y006058D02*
X020369Y006597D01*
X020377Y006605D01*
X021656Y010041D02*
X021974Y010041D01*
X021974Y010200D02*
X021771Y010200D01*
X021810Y010358D02*
X021974Y010358D01*
X021974Y010517D02*
X021793Y010517D01*
X021708Y010675D02*
X021974Y010675D01*
D25*
X021506Y011101D03*
X020254Y012948D03*
X018384Y011523D03*
X016672Y012727D03*
X014841Y011353D03*
X014306Y011645D03*
X013892Y011247D03*
X009711Y011904D03*
X009302Y011397D03*
X007814Y009672D03*
X006365Y007747D03*
X006377Y007145D03*
X008353Y007491D03*
X010841Y007404D03*
X011487Y006373D03*
X010857Y005759D03*
X010188Y005708D03*
X014388Y006586D03*
X015392Y006605D03*
X016392Y006664D03*
X017361Y006664D03*
X018357Y006609D03*
X019077Y006853D03*
X020377Y006605D03*
X021006Y006034D03*
X019955Y009208D03*
X004010Y007460D03*
X003983Y005582D03*
X002455Y005168D03*
X002562Y004558D03*
X001357Y003601D03*
X003510Y001066D03*
X001648Y010215D03*
X002518Y011589D03*
X002829Y012971D03*
D26*
X010794Y002641D02*
X011794Y002641D01*
X005595Y001645D02*
X005605Y001584D01*
D27*
X006136Y001555D02*
X004423Y001555D01*
X004521Y001456D02*
X006136Y001456D01*
X006136Y001373D02*
X006290Y001219D01*
X006607Y001219D01*
X006616Y001211D01*
X006972Y001211D01*
X006981Y001219D01*
X007607Y001219D01*
X007616Y001211D01*
X007972Y001211D01*
X007981Y001219D01*
X008607Y001219D01*
X008616Y001211D01*
X008972Y001211D01*
X008981Y001219D01*
X009607Y001219D01*
X009616Y001211D01*
X009972Y001211D01*
X009981Y001219D01*
X010026Y001219D01*
X010317Y001511D01*
X010317Y001700D01*
X010684Y002066D01*
X012050Y002070D01*
X012266Y001873D01*
X012266Y001330D01*
X012412Y001208D01*
X017699Y001208D01*
X018144Y001519D01*
X018144Y002562D01*
X018400Y002814D01*
X018782Y002814D01*
X019113Y002526D01*
X019121Y001483D01*
X018444Y000883D01*
X005095Y000883D01*
X004231Y001747D01*
X004231Y003597D01*
X004825Y004192D01*
X004825Y008956D01*
X004810Y008944D01*
X004947Y009082D01*
X005526Y009082D01*
X005526Y008827D01*
X005602Y008751D01*
X005912Y008751D01*
X005912Y003999D01*
X005562Y003763D01*
X005164Y003771D01*
X004849Y003400D01*
X004873Y002227D01*
X005109Y002208D01*
X006030Y002208D01*
X006136Y002105D01*
X006136Y001373D01*
X006151Y001358D02*
X004620Y001358D01*
X004718Y001259D02*
X006250Y001259D01*
X006136Y001653D02*
X004324Y001653D01*
X004231Y001752D02*
X006136Y001752D01*
X006136Y001850D02*
X004231Y001850D01*
X004231Y001949D02*
X006136Y001949D01*
X006136Y002047D02*
X004231Y002047D01*
X004231Y002146D02*
X006094Y002146D01*
X006341Y002562D02*
X005125Y002538D01*
X005121Y003101D01*
X005404Y003369D01*
X006412Y003393D01*
X006747Y003794D01*
X006786Y006711D01*
X008392Y006739D01*
X008758Y006684D01*
X008802Y004550D01*
X009156Y004176D01*
X009976Y004179D01*
X009991Y004143D01*
X010111Y004023D01*
X010268Y003958D01*
X010422Y003958D01*
X010987Y003341D01*
X011699Y003337D01*
X012148Y002834D01*
X012164Y002507D01*
X011869Y002278D01*
X010597Y002310D01*
X010388Y002471D01*
X010388Y003125D01*
X009916Y003523D01*
X008282Y003491D01*
X007408Y003495D01*
X006923Y003071D01*
X006616Y003071D01*
X006364Y002819D01*
X006364Y002582D01*
X006341Y002562D01*
X006364Y002638D02*
X005124Y002638D01*
X005125Y002540D02*
X005210Y002540D01*
X005123Y002737D02*
X006364Y002737D01*
X006381Y002835D02*
X005122Y002835D01*
X005122Y002934D02*
X006479Y002934D01*
X006578Y003032D02*
X005121Y003032D01*
X005152Y003131D02*
X006992Y003131D01*
X007104Y003229D02*
X005256Y003229D01*
X005361Y003328D02*
X007217Y003328D01*
X007330Y003426D02*
X006440Y003426D01*
X006522Y003525D02*
X010819Y003525D01*
X010909Y003426D02*
X010030Y003426D01*
X010147Y003328D02*
X011708Y003328D01*
X011796Y003229D02*
X010264Y003229D01*
X010381Y003131D02*
X011883Y003131D01*
X011971Y003032D02*
X010388Y003032D01*
X010388Y002934D02*
X012059Y002934D01*
X012146Y002835D02*
X010388Y002835D01*
X010388Y002737D02*
X012153Y002737D01*
X012158Y002638D02*
X010388Y002638D01*
X010388Y002540D02*
X012162Y002540D01*
X012079Y002441D02*
X010427Y002441D01*
X010554Y002343D02*
X011952Y002343D01*
X012074Y002047D02*
X010665Y002047D01*
X010567Y001949D02*
X012183Y001949D01*
X012266Y001850D02*
X010468Y001850D01*
X010370Y001752D02*
X012266Y001752D01*
X012266Y001653D02*
X010317Y001653D01*
X010317Y001555D02*
X012266Y001555D01*
X012266Y001456D02*
X010263Y001456D01*
X010165Y001358D02*
X012266Y001358D01*
X012350Y001259D02*
X010066Y001259D01*
X010729Y003623D02*
X006604Y003623D01*
X006686Y003722D02*
X010638Y003722D01*
X010548Y003820D02*
X006747Y003820D01*
X006748Y003919D02*
X010458Y003919D01*
X010124Y004017D02*
X006750Y004017D01*
X006751Y004116D02*
X010018Y004116D01*
X009120Y004214D02*
X008685Y004214D01*
X008685Y004203D02*
X008685Y004826D01*
X008609Y004902D01*
X007986Y004902D01*
X007910Y004826D01*
X007910Y004203D01*
X007986Y004127D01*
X008609Y004127D01*
X008685Y004203D01*
X008685Y004313D02*
X009026Y004313D01*
X008933Y004411D02*
X008685Y004411D01*
X008685Y004510D02*
X008840Y004510D01*
X008801Y004608D02*
X008685Y004608D01*
X008685Y004707D02*
X008799Y004707D01*
X008797Y004805D02*
X008685Y004805D01*
X008795Y004904D02*
X006762Y004904D01*
X006763Y005002D02*
X008793Y005002D01*
X008791Y005101D02*
X006764Y005101D01*
X006766Y005199D02*
X008789Y005199D01*
X008787Y005298D02*
X006767Y005298D01*
X006768Y005396D02*
X008785Y005396D01*
X008783Y005495D02*
X006770Y005495D01*
X006771Y005593D02*
X008781Y005593D01*
X008779Y005692D02*
X006772Y005692D01*
X006774Y005790D02*
X008777Y005790D01*
X008775Y005889D02*
X006775Y005889D01*
X006776Y005987D02*
X008773Y005987D01*
X008771Y006086D02*
X006778Y006086D01*
X006779Y006184D02*
X008769Y006184D01*
X008767Y006283D02*
X006780Y006283D01*
X006781Y006381D02*
X008765Y006381D01*
X008763Y006480D02*
X006783Y006480D01*
X006784Y006578D02*
X008761Y006578D01*
X008759Y006677D02*
X006785Y006677D01*
X005912Y006677D02*
X005685Y006677D01*
X005685Y006775D02*
X005912Y006775D01*
X005912Y006874D02*
X005637Y006874D01*
X005609Y006902D02*
X005685Y006826D01*
X005685Y006203D01*
X005609Y006127D01*
X004986Y006127D01*
X004910Y006203D01*
X004910Y006826D01*
X004986Y006902D01*
X005609Y006902D01*
X005912Y006972D02*
X004825Y006972D01*
X004825Y006874D02*
X004958Y006874D01*
X004910Y006775D02*
X004825Y006775D01*
X004825Y006677D02*
X004910Y006677D01*
X004910Y006578D02*
X004825Y006578D01*
X004825Y006480D02*
X004910Y006480D01*
X004910Y006381D02*
X004825Y006381D01*
X004825Y006283D02*
X004910Y006283D01*
X004929Y006184D02*
X004825Y006184D01*
X004825Y006086D02*
X005912Y006086D01*
X005912Y006184D02*
X005666Y006184D01*
X005685Y006283D02*
X005912Y006283D01*
X005912Y006381D02*
X005685Y006381D01*
X005685Y006480D02*
X005912Y006480D01*
X005912Y006578D02*
X005685Y006578D01*
X005912Y007071D02*
X004825Y007071D01*
X004825Y007169D02*
X005912Y007169D01*
X005912Y007268D02*
X004825Y007268D01*
X004825Y007366D02*
X005912Y007366D01*
X005912Y007465D02*
X004825Y007465D01*
X004825Y007563D02*
X005912Y007563D01*
X005912Y007662D02*
X004825Y007662D01*
X004825Y007760D02*
X005912Y007760D01*
X005912Y007859D02*
X004825Y007859D01*
X004825Y007957D02*
X005912Y007957D01*
X005912Y008056D02*
X004825Y008056D01*
X004825Y008154D02*
X005912Y008154D01*
X005912Y008253D02*
X004825Y008253D01*
X004825Y008351D02*
X005912Y008351D01*
X005912Y008450D02*
X004825Y008450D01*
X004825Y008548D02*
X005912Y008548D01*
X005912Y008647D02*
X004825Y008647D01*
X004825Y008745D02*
X005912Y008745D01*
X005526Y008844D02*
X004825Y008844D01*
X004825Y008942D02*
X005526Y008942D01*
X005526Y009041D02*
X004907Y009041D01*
X004825Y005987D02*
X005912Y005987D01*
X005912Y005889D02*
X004825Y005889D01*
X004825Y005790D02*
X005912Y005790D01*
X005912Y005692D02*
X004825Y005692D01*
X004825Y005593D02*
X005912Y005593D01*
X005912Y005495D02*
X004825Y005495D01*
X004825Y005396D02*
X005912Y005396D01*
X005912Y005298D02*
X004825Y005298D01*
X004825Y005199D02*
X005912Y005199D01*
X005912Y005101D02*
X004825Y005101D01*
X004825Y005002D02*
X005912Y005002D01*
X005912Y004904D02*
X004825Y004904D01*
X004825Y004805D02*
X004910Y004805D01*
X004910Y004826D02*
X004986Y004902D01*
X005609Y004902D01*
X005685Y004826D01*
X005685Y004203D01*
X005609Y004127D01*
X004986Y004127D01*
X004910Y004203D01*
X004910Y004826D01*
X004910Y004707D02*
X004825Y004707D01*
X004825Y004608D02*
X004910Y004608D01*
X004910Y004510D02*
X004825Y004510D01*
X004825Y004411D02*
X004910Y004411D01*
X004910Y004313D02*
X004825Y004313D01*
X004825Y004214D02*
X004910Y004214D01*
X004749Y004116D02*
X005912Y004116D01*
X005912Y004214D02*
X005685Y004214D01*
X005685Y004313D02*
X005912Y004313D01*
X005912Y004411D02*
X005685Y004411D01*
X005685Y004510D02*
X005912Y004510D01*
X005912Y004608D02*
X005685Y004608D01*
X005685Y004707D02*
X005912Y004707D01*
X005912Y004805D02*
X005685Y004805D01*
X006760Y004805D02*
X007910Y004805D01*
X007910Y004707D02*
X006759Y004707D01*
X006758Y004608D02*
X007910Y004608D01*
X007910Y004510D02*
X006756Y004510D01*
X006755Y004411D02*
X007910Y004411D01*
X007910Y004313D02*
X006754Y004313D01*
X006752Y004214D02*
X007910Y004214D01*
X005912Y004017D02*
X004651Y004017D01*
X004552Y003919D02*
X005793Y003919D01*
X005647Y003820D02*
X004454Y003820D01*
X004355Y003722D02*
X005123Y003722D01*
X005039Y003623D02*
X004257Y003623D01*
X004231Y003525D02*
X004955Y003525D01*
X004871Y003426D02*
X004231Y003426D01*
X004231Y003328D02*
X004850Y003328D01*
X004852Y003229D02*
X004231Y003229D01*
X004231Y003131D02*
X004854Y003131D01*
X004856Y003032D02*
X004231Y003032D01*
X004231Y002934D02*
X004858Y002934D01*
X004860Y002835D02*
X004231Y002835D01*
X004231Y002737D02*
X004862Y002737D01*
X004864Y002638D02*
X004231Y002638D01*
X004231Y002540D02*
X004866Y002540D01*
X004868Y002441D02*
X004231Y002441D01*
X004231Y002343D02*
X004870Y002343D01*
X004872Y002244D02*
X004231Y002244D01*
X004817Y001161D02*
X018757Y001161D01*
X018646Y001062D02*
X004915Y001062D01*
X005014Y000964D02*
X018535Y000964D01*
X018868Y001259D02*
X017774Y001259D01*
X017914Y001358D02*
X018979Y001358D01*
X019090Y001456D02*
X018055Y001456D01*
X018144Y001555D02*
X019120Y001555D01*
X019119Y001653D02*
X018144Y001653D01*
X018144Y001752D02*
X019119Y001752D01*
X019118Y001850D02*
X018144Y001850D01*
X018144Y001949D02*
X019117Y001949D01*
X019116Y002047D02*
X018144Y002047D01*
X018144Y002146D02*
X019116Y002146D01*
X019115Y002244D02*
X018144Y002244D01*
X018144Y002343D02*
X019114Y002343D01*
X019113Y002441D02*
X018144Y002441D01*
X018144Y002540D02*
X019097Y002540D01*
X018984Y002638D02*
X018222Y002638D01*
X018322Y002737D02*
X018871Y002737D01*
D28*
X004396Y004546D02*
X004317Y004574D01*
X002562Y004558D01*
M02*
