%
M48
M72
T01C0.0197
T02C0.0315
T03C0.0354
T04C0.0394
T05C0.0400
%
T01
X3510Y1066
X1357Y3601
X2562Y4558
X2455Y5168
X3983Y5582
X6377Y7145
X6365Y7747
X8353Y7491
X10841Y7404
X11487Y6373
X10857Y5759
X10188Y5708
X14388Y6586
X15392Y6605
X16392Y6664
X17361Y6664
X18357Y6609
X19077Y6853
X20377Y6605
X21006Y6034
X19955Y9208
X21506Y11101
X20254Y12948
X18384Y11523
X16672Y12727
X14841Y11353
X14306Y11645
X13892Y11247
X9711Y11904
X9302Y11397
X7814Y9672
X4010Y7460
X1648Y10215
X2518Y11589
X2829Y12971
T02
X5298Y11515
X5298Y10515
X8298Y10515
X8298Y11515
X8298Y8515
X5298Y8515
X5298Y6515
X8298Y6515
X8298Y4515
X5298Y4515
T03
X4396Y4546
X1396Y4546
X1396Y6546
X4396Y6546
X4396Y8546
X1396Y8546
X1396Y11546
X4396Y11546
T04
X9353Y9885
X10353Y10385
X11353Y10385
X12353Y10385
X13353Y10385
X14353Y10385
X15353Y10385
X16353Y10385
X17353Y10385
X18353Y10385
X19353Y10385
X20353Y10385
X21353Y10385
X21353Y9385
X21353Y8385
X21353Y7385
X21353Y4385
X20353Y4385
X19353Y4385
X18353Y4385
X17353Y4385
X16353Y4385
X15353Y4385
X14353Y4385
X13353Y4385
X12353Y4385
X11353Y4385
X10353Y4385
X9353Y4885
X9353Y5885
X9353Y6885
X9353Y7885
X9353Y8885
X13853Y9385
X14853Y9385
T05
X14636Y13089
X13636Y13089
X12636Y13089
X11636Y13089
X10636Y13089
X9636Y13089
X8636Y13089
X7636Y13089
X6636Y13089
X15636Y13089
X15794Y2641
X14794Y2641
X13794Y2641
X12794Y2641
X11794Y2641
X10794Y2641
X9794Y2641
X8794Y2641
X7794Y2641
X6794Y2641
X6794Y1641
X7794Y1641
X8794Y1641
X9794Y1641
X10794Y1641
X11794Y1641
X12794Y1641
X13794Y1641
X14794Y1641
X15794Y1641
X17396Y2341
X18617Y2341
X19975Y2341
M30
