G75*
%MOIN*%
%OFA0B0*%
%FSLAX24Y24*%
%IPPOS*%
%LPD*%
%AMOC8*
5,1,8,0,0,1.08239X$1,22.5*
%
%ADD10R,0.0474X0.0631*%
%ADD11R,0.0710X0.0592*%
%ADD12R,0.0592X0.0710*%
%ADD13R,0.0595X0.0595*%
%ADD14R,0.0631X0.0474*%
%ADD15R,0.0631X0.0789*%
%ADD16R,0.0946X0.0316*%
%ADD17R,0.0671X0.0592*%
%ADD18R,0.0592X0.0671*%
%ADD19C,0.0674*%
%ADD20C,0.0634*%
%ADD21C,0.0680*%
%ADD22OC8,0.0680*%
%ADD23OC8,0.0930*%
%ADD24C,0.0437*%
D10*
X019585Y007609D03*
X020333Y007609D03*
X019959Y008475D03*
D11*
X001640Y001239D03*
X001640Y001987D03*
X014373Y005298D03*
X015369Y005330D03*
X016384Y005318D03*
X016384Y006066D03*
X015369Y006078D03*
X014373Y006046D03*
X017377Y006066D03*
X018365Y006070D03*
X019380Y006062D03*
X020369Y006058D03*
X020369Y005310D03*
X019380Y005314D03*
X018365Y005322D03*
X017377Y005318D03*
X021621Y005314D03*
X021621Y006062D03*
X016758Y008802D03*
X015731Y008798D03*
X015731Y009546D03*
X016758Y009550D03*
X016652Y011416D03*
X017672Y011432D03*
X017672Y012180D03*
X016652Y012164D03*
D12*
X017841Y007507D03*
X018589Y007507D03*
X002550Y002802D03*
X001802Y002802D03*
D13*
X005298Y004515D03*
X008298Y004515D03*
X008298Y006515D03*
X005298Y006515D03*
X005298Y008515D03*
X008298Y008515D03*
X008298Y010515D03*
X008298Y011515D03*
X005298Y011515D03*
X005298Y010515D03*
D14*
X006798Y009452D03*
X005932Y009078D03*
X006798Y008704D03*
X006943Y007900D03*
X007810Y007526D03*
X006943Y007152D03*
D15*
X003892Y010215D03*
X002554Y010215D03*
X006125Y010432D03*
X007463Y010432D03*
X007475Y011420D03*
X006136Y011420D03*
D16*
X019211Y011650D03*
X019211Y012150D03*
X019211Y012650D03*
X019211Y013150D03*
X021258Y013150D03*
X021258Y012650D03*
X021258Y012150D03*
X021258Y011650D03*
X005605Y003084D03*
X005605Y002584D03*
X005605Y002084D03*
X005605Y001584D03*
X003558Y001584D03*
X003558Y002084D03*
X003558Y002584D03*
X003558Y003084D03*
D17*
X002565Y001991D03*
X002565Y001243D03*
D18*
X002621Y003593D03*
X001873Y003593D03*
D19*
X009353Y004885D03*
X010353Y004385D03*
X011353Y004385D03*
X012353Y004385D03*
X013353Y004385D03*
X014353Y004385D03*
X015353Y004385D03*
X016353Y004385D03*
X017353Y004385D03*
X018353Y004385D03*
X019353Y004385D03*
X020353Y004385D03*
X021353Y004385D03*
X021353Y007385D03*
X021353Y008385D03*
X021353Y009385D03*
X021353Y010385D03*
X020353Y010385D03*
X019353Y010385D03*
X018353Y010385D03*
X017353Y010385D03*
X016353Y010385D03*
X015353Y010385D03*
X014353Y010385D03*
X013353Y010385D03*
X012353Y010385D03*
X011353Y010385D03*
X010353Y010385D03*
X009353Y009885D03*
X009353Y008885D03*
X009353Y007885D03*
X009353Y006885D03*
X009353Y005885D03*
X013853Y009385D03*
X014853Y009385D03*
D20*
X004396Y008546D03*
X001396Y008546D03*
X001396Y006546D03*
X004396Y006546D03*
X004396Y004546D03*
X001396Y004546D03*
X001396Y011546D03*
X004396Y011546D03*
D21*
X006636Y012789D02*
X006636Y013389D01*
X007636Y013389D02*
X007636Y012789D01*
X008636Y012789D02*
X008636Y013389D01*
X009636Y013389D02*
X009636Y012789D01*
X010636Y012789D02*
X010636Y013389D01*
X011636Y013389D02*
X011636Y012789D01*
X012636Y012789D02*
X012636Y013389D01*
X013636Y013389D02*
X013636Y012789D01*
X014636Y012789D02*
X014636Y013389D01*
X015636Y013389D02*
X015636Y012789D01*
D22*
X015794Y002641D03*
X014794Y002641D03*
X013794Y002641D03*
X012794Y002641D03*
X011794Y002641D03*
X010794Y002641D03*
X009794Y002641D03*
X008794Y002641D03*
X007794Y002641D03*
X006794Y002641D03*
X006794Y001641D03*
X007794Y001641D03*
X008794Y001641D03*
X009794Y001641D03*
X010794Y001641D03*
X011794Y001641D03*
X012794Y001641D03*
X013794Y001641D03*
X014794Y001641D03*
X015794Y001641D03*
D23*
X017396Y002341D03*
X018617Y002341D03*
X019975Y002341D03*
D24*
X021006Y006034D03*
X020377Y006605D03*
X019077Y006853D03*
X018357Y006609D03*
X017361Y006664D03*
X016392Y006664D03*
X015392Y006605D03*
X014388Y006586D03*
X011487Y006373D03*
X010857Y005759D03*
X010188Y005708D03*
X010841Y007404D03*
X008353Y007491D03*
X006365Y007747D03*
X006377Y007145D03*
X004010Y007460D03*
X003983Y005582D03*
X002455Y005168D03*
X002562Y004558D03*
X001357Y003601D03*
X003510Y001066D03*
X007814Y009672D03*
X009302Y011397D03*
X009711Y011904D03*
X013892Y011247D03*
X014306Y011645D03*
X014841Y011353D03*
X016672Y012727D03*
X018384Y011523D03*
X020254Y012948D03*
X021506Y011101D03*
X019955Y009208D03*
X002829Y012971D03*
X002518Y011589D03*
X001648Y010215D03*
M02*
