%
M48
M72
T01C0.0400
T02C0.0470
T03C0.1260
%
T01
X12831Y6264
X13831Y6264
X14831Y6264
X15831Y6264
X16831Y6264
X17831Y6264
X18831Y6264
X19831Y6264
X20831Y6264
X21831Y6264
X21831Y7264
X20831Y7264
X19831Y7264
X18831Y7264
X17831Y7264
X16831Y7264
X15831Y7264
X14831Y7264
X13831Y7264
X12831Y7264
T02
X2750Y2764
X2750Y4764
X2750Y6764
X2750Y8764
X2750Y10764
X31596Y10764
X31596Y8764
X31596Y6764
X31596Y4764
X31596Y2764
T03
X27016Y2433
X7331Y11095
M30
