G75*
%MOIN*%
%OFA0B0*%
%FSLAX24Y24*%
%IPPOS*%
%LPD*%
%AMOC8*
5,1,8,0,0,1.08239X$1,22.5*
%
%ADD10C,0.0060*%
%ADD11C,0.0050*%
D10*
X001100Y001764D02*
X002050Y001764D01*
X002050Y002414D01*
X002050Y001764D02*
X004650Y001764D01*
X004650Y011764D01*
X004750Y011764D01*
X004750Y005764D01*
X002050Y005764D01*
X002050Y005114D01*
X002050Y005764D02*
X002050Y006414D01*
X002050Y007114D02*
X002050Y008414D01*
X002050Y009114D02*
X002050Y010414D01*
X002050Y011114D02*
X002050Y011764D01*
X004650Y011764D01*
X003920Y010764D02*
X003922Y010792D01*
X003928Y010819D01*
X003937Y010845D01*
X003950Y010870D01*
X003967Y010893D01*
X003986Y010913D01*
X004008Y010930D01*
X004032Y010944D01*
X004058Y010954D01*
X004085Y010961D01*
X004113Y010964D01*
X004141Y010963D01*
X004168Y010958D01*
X004195Y010949D01*
X004220Y010937D01*
X004243Y010922D01*
X004264Y010903D01*
X004282Y010882D01*
X004297Y010858D01*
X004308Y010832D01*
X004316Y010806D01*
X004320Y010778D01*
X004320Y010750D01*
X004316Y010722D01*
X004308Y010696D01*
X004297Y010670D01*
X004282Y010646D01*
X004264Y010625D01*
X004243Y010606D01*
X004220Y010591D01*
X004195Y010579D01*
X004168Y010570D01*
X004141Y010565D01*
X004113Y010564D01*
X004085Y010567D01*
X004058Y010574D01*
X004032Y010584D01*
X004008Y010598D01*
X003986Y010615D01*
X003967Y010635D01*
X003950Y010658D01*
X003937Y010683D01*
X003928Y010709D01*
X003922Y010736D01*
X003920Y010764D01*
X002050Y011764D02*
X001100Y011764D01*
X001100Y001764D01*
X003920Y002764D02*
X003922Y002792D01*
X003928Y002819D01*
X003937Y002845D01*
X003950Y002870D01*
X003967Y002893D01*
X003986Y002913D01*
X004008Y002930D01*
X004032Y002944D01*
X004058Y002954D01*
X004085Y002961D01*
X004113Y002964D01*
X004141Y002963D01*
X004168Y002958D01*
X004195Y002949D01*
X004220Y002937D01*
X004243Y002922D01*
X004264Y002903D01*
X004282Y002882D01*
X004297Y002858D01*
X004308Y002832D01*
X004316Y002806D01*
X004320Y002778D01*
X004320Y002750D01*
X004316Y002722D01*
X004308Y002696D01*
X004297Y002670D01*
X004282Y002646D01*
X004264Y002625D01*
X004243Y002606D01*
X004220Y002591D01*
X004195Y002579D01*
X004168Y002570D01*
X004141Y002565D01*
X004113Y002564D01*
X004085Y002567D01*
X004058Y002574D01*
X004032Y002584D01*
X004008Y002598D01*
X003986Y002615D01*
X003967Y002635D01*
X003950Y002658D01*
X003937Y002683D01*
X003928Y002709D01*
X003922Y002736D01*
X003920Y002764D01*
X002050Y003114D02*
X002050Y004414D01*
X003920Y004764D02*
X003922Y004792D01*
X003928Y004819D01*
X003937Y004845D01*
X003950Y004870D01*
X003967Y004893D01*
X003986Y004913D01*
X004008Y004930D01*
X004032Y004944D01*
X004058Y004954D01*
X004085Y004961D01*
X004113Y004964D01*
X004141Y004963D01*
X004168Y004958D01*
X004195Y004949D01*
X004220Y004937D01*
X004243Y004922D01*
X004264Y004903D01*
X004282Y004882D01*
X004297Y004858D01*
X004308Y004832D01*
X004316Y004806D01*
X004320Y004778D01*
X004320Y004750D01*
X004316Y004722D01*
X004308Y004696D01*
X004297Y004670D01*
X004282Y004646D01*
X004264Y004625D01*
X004243Y004606D01*
X004220Y004591D01*
X004195Y004579D01*
X004168Y004570D01*
X004141Y004565D01*
X004113Y004564D01*
X004085Y004567D01*
X004058Y004574D01*
X004032Y004584D01*
X004008Y004598D01*
X003986Y004615D01*
X003967Y004635D01*
X003950Y004658D01*
X003937Y004683D01*
X003928Y004709D01*
X003922Y004736D01*
X003920Y004764D01*
X004750Y005764D02*
X004750Y001764D01*
X004650Y001764D01*
X012331Y006014D02*
X012581Y005764D01*
X013081Y005764D01*
X013331Y006014D01*
X013581Y005764D01*
X014081Y005764D01*
X014331Y006014D01*
X014581Y005764D01*
X015081Y005764D01*
X015331Y006014D01*
X015581Y005764D01*
X016081Y005764D01*
X016331Y006014D01*
X016581Y005764D01*
X017081Y005764D01*
X017331Y006014D01*
X017581Y005764D01*
X018081Y005764D01*
X018331Y006014D01*
X018581Y005764D01*
X019081Y005764D01*
X019331Y006014D01*
X019581Y005764D01*
X020081Y005764D01*
X020331Y006014D01*
X020581Y005764D01*
X021081Y005764D01*
X021331Y006014D01*
X021581Y005764D01*
X022081Y005764D01*
X022331Y006014D01*
X022331Y007514D01*
X022081Y007764D01*
X021581Y007764D01*
X021331Y007514D01*
X021081Y007764D01*
X020581Y007764D01*
X020331Y007514D01*
X020081Y007764D01*
X019581Y007764D01*
X019331Y007514D01*
X019081Y007764D01*
X018581Y007764D01*
X018331Y007514D01*
X018081Y007764D01*
X017581Y007764D01*
X017331Y007514D01*
X017081Y007764D01*
X016581Y007764D01*
X016331Y007514D01*
X016081Y007764D01*
X015581Y007764D01*
X015331Y007514D01*
X015081Y007764D01*
X014581Y007764D01*
X014331Y007514D01*
X014081Y007764D01*
X013581Y007764D01*
X013331Y007514D01*
X013081Y007764D01*
X012581Y007764D01*
X012331Y007514D01*
X012331Y006014D01*
X003920Y006764D02*
X003922Y006792D01*
X003928Y006819D01*
X003937Y006845D01*
X003950Y006870D01*
X003967Y006893D01*
X003986Y006913D01*
X004008Y006930D01*
X004032Y006944D01*
X004058Y006954D01*
X004085Y006961D01*
X004113Y006964D01*
X004141Y006963D01*
X004168Y006958D01*
X004195Y006949D01*
X004220Y006937D01*
X004243Y006922D01*
X004264Y006903D01*
X004282Y006882D01*
X004297Y006858D01*
X004308Y006832D01*
X004316Y006806D01*
X004320Y006778D01*
X004320Y006750D01*
X004316Y006722D01*
X004308Y006696D01*
X004297Y006670D01*
X004282Y006646D01*
X004264Y006625D01*
X004243Y006606D01*
X004220Y006591D01*
X004195Y006579D01*
X004168Y006570D01*
X004141Y006565D01*
X004113Y006564D01*
X004085Y006567D01*
X004058Y006574D01*
X004032Y006584D01*
X004008Y006598D01*
X003986Y006615D01*
X003967Y006635D01*
X003950Y006658D01*
X003937Y006683D01*
X003928Y006709D01*
X003922Y006736D01*
X003920Y006764D01*
X003920Y008764D02*
X003922Y008792D01*
X003928Y008819D01*
X003937Y008845D01*
X003950Y008870D01*
X003967Y008893D01*
X003986Y008913D01*
X004008Y008930D01*
X004032Y008944D01*
X004058Y008954D01*
X004085Y008961D01*
X004113Y008964D01*
X004141Y008963D01*
X004168Y008958D01*
X004195Y008949D01*
X004220Y008937D01*
X004243Y008922D01*
X004264Y008903D01*
X004282Y008882D01*
X004297Y008858D01*
X004308Y008832D01*
X004316Y008806D01*
X004320Y008778D01*
X004320Y008750D01*
X004316Y008722D01*
X004308Y008696D01*
X004297Y008670D01*
X004282Y008646D01*
X004264Y008625D01*
X004243Y008606D01*
X004220Y008591D01*
X004195Y008579D01*
X004168Y008570D01*
X004141Y008565D01*
X004113Y008564D01*
X004085Y008567D01*
X004058Y008574D01*
X004032Y008584D01*
X004008Y008598D01*
X003986Y008615D01*
X003967Y008635D01*
X003950Y008658D01*
X003937Y008683D01*
X003928Y008709D01*
X003922Y008736D01*
X003920Y008764D01*
X029596Y007764D02*
X029596Y001764D01*
X029696Y001764D01*
X029696Y011764D01*
X032296Y011764D01*
X032296Y011114D01*
X032296Y011764D02*
X033246Y011764D01*
X033246Y001764D01*
X032296Y001764D01*
X029696Y001764D01*
X030026Y002764D02*
X030028Y002792D01*
X030034Y002819D01*
X030043Y002845D01*
X030056Y002870D01*
X030073Y002893D01*
X030092Y002913D01*
X030114Y002930D01*
X030138Y002944D01*
X030164Y002954D01*
X030191Y002961D01*
X030219Y002964D01*
X030247Y002963D01*
X030274Y002958D01*
X030301Y002949D01*
X030326Y002937D01*
X030349Y002922D01*
X030370Y002903D01*
X030388Y002882D01*
X030403Y002858D01*
X030414Y002832D01*
X030422Y002806D01*
X030426Y002778D01*
X030426Y002750D01*
X030422Y002722D01*
X030414Y002696D01*
X030403Y002670D01*
X030388Y002646D01*
X030370Y002625D01*
X030349Y002606D01*
X030326Y002591D01*
X030301Y002579D01*
X030274Y002570D01*
X030247Y002565D01*
X030219Y002564D01*
X030191Y002567D01*
X030164Y002574D01*
X030138Y002584D01*
X030114Y002598D01*
X030092Y002615D01*
X030073Y002635D01*
X030056Y002658D01*
X030043Y002683D01*
X030034Y002709D01*
X030028Y002736D01*
X030026Y002764D01*
X032296Y002414D02*
X032296Y001764D01*
X032296Y003114D02*
X032296Y004414D01*
X032296Y005114D02*
X032296Y006414D01*
X032296Y007114D02*
X032296Y007764D01*
X032296Y008414D01*
X032296Y007764D02*
X029596Y007764D01*
X029596Y011764D01*
X029696Y011764D01*
X030026Y010764D02*
X030028Y010792D01*
X030034Y010819D01*
X030043Y010845D01*
X030056Y010870D01*
X030073Y010893D01*
X030092Y010913D01*
X030114Y010930D01*
X030138Y010944D01*
X030164Y010954D01*
X030191Y010961D01*
X030219Y010964D01*
X030247Y010963D01*
X030274Y010958D01*
X030301Y010949D01*
X030326Y010937D01*
X030349Y010922D01*
X030370Y010903D01*
X030388Y010882D01*
X030403Y010858D01*
X030414Y010832D01*
X030422Y010806D01*
X030426Y010778D01*
X030426Y010750D01*
X030422Y010722D01*
X030414Y010696D01*
X030403Y010670D01*
X030388Y010646D01*
X030370Y010625D01*
X030349Y010606D01*
X030326Y010591D01*
X030301Y010579D01*
X030274Y010570D01*
X030247Y010565D01*
X030219Y010564D01*
X030191Y010567D01*
X030164Y010574D01*
X030138Y010584D01*
X030114Y010598D01*
X030092Y010615D01*
X030073Y010635D01*
X030056Y010658D01*
X030043Y010683D01*
X030034Y010709D01*
X030028Y010736D01*
X030026Y010764D01*
X032296Y010414D02*
X032296Y009114D01*
X030026Y008764D02*
X030028Y008792D01*
X030034Y008819D01*
X030043Y008845D01*
X030056Y008870D01*
X030073Y008893D01*
X030092Y008913D01*
X030114Y008930D01*
X030138Y008944D01*
X030164Y008954D01*
X030191Y008961D01*
X030219Y008964D01*
X030247Y008963D01*
X030274Y008958D01*
X030301Y008949D01*
X030326Y008937D01*
X030349Y008922D01*
X030370Y008903D01*
X030388Y008882D01*
X030403Y008858D01*
X030414Y008832D01*
X030422Y008806D01*
X030426Y008778D01*
X030426Y008750D01*
X030422Y008722D01*
X030414Y008696D01*
X030403Y008670D01*
X030388Y008646D01*
X030370Y008625D01*
X030349Y008606D01*
X030326Y008591D01*
X030301Y008579D01*
X030274Y008570D01*
X030247Y008565D01*
X030219Y008564D01*
X030191Y008567D01*
X030164Y008574D01*
X030138Y008584D01*
X030114Y008598D01*
X030092Y008615D01*
X030073Y008635D01*
X030056Y008658D01*
X030043Y008683D01*
X030034Y008709D01*
X030028Y008736D01*
X030026Y008764D01*
X030026Y006764D02*
X030028Y006792D01*
X030034Y006819D01*
X030043Y006845D01*
X030056Y006870D01*
X030073Y006893D01*
X030092Y006913D01*
X030114Y006930D01*
X030138Y006944D01*
X030164Y006954D01*
X030191Y006961D01*
X030219Y006964D01*
X030247Y006963D01*
X030274Y006958D01*
X030301Y006949D01*
X030326Y006937D01*
X030349Y006922D01*
X030370Y006903D01*
X030388Y006882D01*
X030403Y006858D01*
X030414Y006832D01*
X030422Y006806D01*
X030426Y006778D01*
X030426Y006750D01*
X030422Y006722D01*
X030414Y006696D01*
X030403Y006670D01*
X030388Y006646D01*
X030370Y006625D01*
X030349Y006606D01*
X030326Y006591D01*
X030301Y006579D01*
X030274Y006570D01*
X030247Y006565D01*
X030219Y006564D01*
X030191Y006567D01*
X030164Y006574D01*
X030138Y006584D01*
X030114Y006598D01*
X030092Y006615D01*
X030073Y006635D01*
X030056Y006658D01*
X030043Y006683D01*
X030034Y006709D01*
X030028Y006736D01*
X030026Y006764D01*
X030026Y004764D02*
X030028Y004792D01*
X030034Y004819D01*
X030043Y004845D01*
X030056Y004870D01*
X030073Y004893D01*
X030092Y004913D01*
X030114Y004930D01*
X030138Y004944D01*
X030164Y004954D01*
X030191Y004961D01*
X030219Y004964D01*
X030247Y004963D01*
X030274Y004958D01*
X030301Y004949D01*
X030326Y004937D01*
X030349Y004922D01*
X030370Y004903D01*
X030388Y004882D01*
X030403Y004858D01*
X030414Y004832D01*
X030422Y004806D01*
X030426Y004778D01*
X030426Y004750D01*
X030422Y004722D01*
X030414Y004696D01*
X030403Y004670D01*
X030388Y004646D01*
X030370Y004625D01*
X030349Y004606D01*
X030326Y004591D01*
X030301Y004579D01*
X030274Y004570D01*
X030247Y004565D01*
X030219Y004564D01*
X030191Y004567D01*
X030164Y004574D01*
X030138Y004584D01*
X030114Y004598D01*
X030092Y004615D01*
X030073Y004635D01*
X030056Y004658D01*
X030043Y004683D01*
X030034Y004709D01*
X030028Y004736D01*
X030026Y004764D01*
D11*
X033571Y002975D02*
X033646Y003050D01*
X033721Y003050D01*
X033796Y002975D01*
X033871Y003050D01*
X033946Y003050D01*
X034021Y002975D01*
X034021Y002825D01*
X033946Y002750D01*
X034021Y002589D02*
X033571Y002289D01*
X033571Y002589D02*
X034021Y002289D01*
X033646Y002750D02*
X033571Y002825D01*
X033571Y002975D01*
X033796Y002975D02*
X033796Y002900D01*
X022116Y008014D02*
X022041Y007939D01*
X021891Y007939D01*
X021816Y008014D01*
X022116Y008314D01*
X022116Y008014D01*
X021816Y008014D02*
X021816Y008314D01*
X021891Y008390D01*
X022041Y008390D01*
X022116Y008314D01*
X021656Y008314D02*
X021656Y008239D01*
X021356Y007939D01*
X021656Y007939D01*
X021656Y008314D02*
X021581Y008390D01*
X021431Y008390D01*
X021356Y008314D01*
X013577Y008239D02*
X013577Y008314D01*
X013502Y008390D01*
X013352Y008390D01*
X013276Y008314D01*
X013116Y008390D02*
X013116Y008089D01*
X012966Y007939D01*
X012816Y008089D01*
X012816Y008390D01*
X012656Y008314D02*
X012581Y008390D01*
X012431Y008390D01*
X012356Y008314D01*
X012356Y008239D01*
X012431Y008164D01*
X012581Y008164D01*
X012656Y008089D01*
X012656Y008014D01*
X012581Y007939D01*
X012431Y007939D01*
X012356Y008014D01*
X013276Y007939D02*
X013577Y008239D01*
X013577Y007939D02*
X013276Y007939D01*
X012806Y005590D02*
X012806Y005139D01*
X012656Y005139D02*
X012956Y005139D01*
X012656Y005439D02*
X012806Y005590D01*
X000775Y010368D02*
X000325Y010669D01*
X000475Y010829D02*
X000325Y010979D01*
X000775Y010979D01*
X000775Y010829D02*
X000775Y011129D01*
X000775Y010669D02*
X000325Y010368D01*
M02*
