G75*
%MOIN*%
%OFA0B0*%
%FSLAX24Y24*%
%IPPOS*%
%LPD*%
%AMOC8*
5,1,8,0,0,1.08239X$1,22.5*
%
%ADD10R,0.0515X0.0515*%
%ADD11C,0.0594*%
%ADD12C,0.0554*%
%ADD13C,0.0600*%
%ADD14OC8,0.0600*%
%ADD15OC8,0.0850*%
%ADD16R,0.0945X0.0945*%
%ADD17C,0.0357*%
%ADD18C,0.0160*%
%ADD19C,0.0100*%
%ADD20C,0.0560*%
%ADD21C,0.0400*%
D10*
X005298Y004515D03*
X008298Y004515D03*
X008298Y006515D03*
X005298Y006515D03*
X005298Y008515D03*
X008298Y008515D03*
X008298Y010515D03*
X008298Y011515D03*
X005298Y011515D03*
X005298Y010515D03*
D11*
X009353Y009885D03*
X010353Y010385D03*
X011353Y010385D03*
X012353Y010385D03*
X013353Y010385D03*
X014353Y010385D03*
X015353Y010385D03*
X016353Y010385D03*
X017353Y010385D03*
X018353Y010385D03*
X019353Y010385D03*
X020353Y010385D03*
X021353Y010385D03*
X021353Y009385D03*
X021353Y008385D03*
X021353Y007385D03*
X021353Y004385D03*
X020353Y004385D03*
X019353Y004385D03*
X018353Y004385D03*
X017353Y004385D03*
X016353Y004385D03*
X015353Y004385D03*
X014353Y004385D03*
X013353Y004385D03*
X012353Y004385D03*
X011353Y004385D03*
X010353Y004385D03*
X009353Y004885D03*
X009353Y005885D03*
X009353Y006885D03*
X009353Y007885D03*
X009353Y008885D03*
X013853Y009385D03*
X014853Y009385D03*
D12*
X004396Y008546D03*
X001396Y008546D03*
X001396Y006546D03*
X004396Y006546D03*
X004396Y004546D03*
X001396Y004546D03*
X001396Y011546D03*
X004396Y011546D03*
D13*
X006636Y012789D02*
X006636Y013389D01*
X007636Y013389D02*
X007636Y012789D01*
X008636Y012789D02*
X008636Y013389D01*
X009636Y013389D02*
X009636Y012789D01*
X010636Y012789D02*
X010636Y013389D01*
X011636Y013389D02*
X011636Y012789D01*
X012636Y012789D02*
X012636Y013389D01*
X013636Y013389D02*
X013636Y012789D01*
X014636Y012789D02*
X014636Y013389D01*
X015636Y013389D02*
X015636Y012789D01*
D14*
X015794Y002641D03*
X014794Y002641D03*
X013794Y002641D03*
X012794Y002641D03*
X011794Y002641D03*
X010794Y002641D03*
X009794Y002641D03*
X008794Y002641D03*
X007794Y002641D03*
X006794Y002641D03*
X006794Y001641D03*
X007794Y001641D03*
X008794Y001641D03*
X009794Y001641D03*
X010794Y001641D03*
X011794Y001641D03*
X012794Y001641D03*
X013794Y001641D03*
X014794Y001641D03*
X015794Y001641D03*
D15*
X017396Y002341D03*
X018617Y002341D03*
X019975Y002341D03*
D16*
X019510Y012015D03*
X021479Y012015D03*
D17*
X021506Y011101D03*
X020254Y012948D03*
X018384Y011523D03*
X016672Y012727D03*
X014841Y011353D03*
X014306Y011645D03*
X013892Y011247D03*
X009711Y011904D03*
X009302Y011397D03*
X007814Y009672D03*
X006365Y007747D03*
X006377Y007145D03*
X008353Y007491D03*
X010841Y007404D03*
X011487Y006373D03*
X010857Y005759D03*
X010188Y005708D03*
X014388Y006586D03*
X015392Y006605D03*
X016392Y006664D03*
X017361Y006664D03*
X018357Y006609D03*
X019077Y006853D03*
X020377Y006605D03*
X021006Y006034D03*
X019955Y009208D03*
X004010Y007460D03*
X003983Y005582D03*
X002455Y005168D03*
X002562Y004558D03*
X001357Y003601D03*
X003510Y001066D03*
X001648Y010215D03*
X002518Y011589D03*
X002829Y012971D03*
D18*
X004069Y012302D02*
X003341Y011574D01*
X003341Y009070D01*
X002857Y008586D01*
X002857Y005570D01*
X002455Y005168D01*
X002439Y005168D01*
X003983Y005582D02*
X004152Y005412D01*
X009829Y005412D01*
X010125Y005708D01*
X010188Y005708D01*
X010857Y005759D02*
X011054Y005763D01*
X011735Y005125D01*
X020132Y005125D01*
X021006Y006034D01*
X021605Y006023D02*
X019963Y007692D01*
X019963Y009200D01*
X019955Y009208D01*
X017865Y010188D02*
X017199Y009523D01*
X017199Y007723D01*
X017857Y007066D01*
X018865Y007066D01*
X019077Y006853D01*
X018357Y006609D02*
X017928Y006609D01*
X017117Y005798D01*
X013314Y005798D01*
X011857Y007255D01*
X011857Y011239D01*
X011581Y011515D01*
X009353Y011515D01*
X009235Y011397D01*
X009302Y011397D01*
X009026Y010948D02*
X008794Y011180D01*
X008794Y011861D01*
X008597Y012011D01*
X007798Y012011D01*
X005353Y009731D01*
X004668Y009731D01*
X004337Y009400D01*
X004337Y008593D01*
X004396Y008546D01*
X005298Y008515D02*
X006392Y008515D01*
X006861Y008046D01*
X007806Y008046D01*
X008298Y008515D01*
X008817Y008928D02*
X008821Y008054D01*
X008353Y007491D01*
X008735Y007066D02*
X006672Y007066D01*
X006573Y007141D01*
X006377Y007145D01*
X006365Y007747D02*
X004357Y007771D01*
X004010Y007460D01*
X007420Y009570D02*
X007790Y009086D01*
X008632Y009093D01*
X008817Y008928D01*
X008912Y009385D02*
X008073Y009377D01*
X007814Y009672D01*
X007420Y009570D02*
X007412Y010652D01*
X008298Y011515D01*
X009026Y010948D02*
X009042Y010940D01*
X010841Y009141D01*
X010841Y007404D01*
X010432Y007290D02*
X010908Y006814D01*
X011325Y006440D01*
X011487Y006373D01*
X012833Y006759D02*
X012833Y011483D01*
X012357Y011960D01*
X009766Y011960D01*
X009711Y011904D01*
X009664Y012306D02*
X009916Y012310D01*
X011625Y012314D01*
X011636Y012467D01*
X011636Y013089D01*
X011625Y012314D02*
X013294Y012310D01*
X013707Y012306D01*
X013636Y012408D01*
X013636Y013089D01*
X013707Y012306D02*
X015420Y012310D01*
X015625Y012542D01*
X015625Y013078D01*
X015636Y013089D01*
X016672Y012727D02*
X020058Y012739D01*
X020254Y012948D01*
X019510Y012015D02*
X018790Y011995D01*
X018384Y011523D01*
X018384Y011369D01*
X017865Y010849D01*
X017865Y010188D01*
X016841Y010070D02*
X016841Y011558D01*
X016306Y012030D01*
X013845Y012030D01*
X013648Y011841D01*
X013648Y011491D01*
X013892Y011247D01*
X014306Y011645D02*
X014416Y011645D01*
X014518Y011747D01*
X015420Y011743D01*
X015798Y011365D01*
X015845Y010117D01*
X015392Y009664D01*
X015392Y006605D01*
X016392Y006664D02*
X016392Y009621D01*
X016841Y010070D01*
X014841Y010133D02*
X014841Y011353D01*
X014841Y010133D02*
X014388Y009680D01*
X014388Y006586D01*
X013475Y006117D02*
X012833Y006759D01*
X013475Y006117D02*
X016554Y006117D01*
X017101Y006664D01*
X017361Y006664D01*
X019270Y005467D02*
X011790Y005471D01*
X009873Y007404D01*
X009050Y007381D01*
X008735Y007066D01*
X010432Y007290D02*
X010432Y008983D01*
X010030Y009385D01*
X008912Y009385D01*
X009664Y012306D02*
X007527Y012302D01*
X004069Y012302D01*
X002518Y011589D02*
X001396Y011546D01*
X007527Y012302D02*
X007636Y012412D01*
X007636Y013089D01*
X009636Y013089D02*
X009636Y012507D01*
X009625Y012326D01*
X009916Y012310D01*
X019270Y005467D02*
X020373Y006625D01*
X020377Y006605D01*
X021605Y006023D02*
X021605Y005341D01*
X020869Y004605D01*
X020863Y003890D01*
X021518Y003235D01*
X021518Y002613D01*
X020546Y001641D01*
X015794Y001641D01*
X014794Y001641D01*
X005754Y001652D02*
X004467Y001652D01*
X003510Y001259D02*
X003510Y001066D01*
X003510Y001259D02*
X003353Y001416D01*
X001652Y003322D02*
X001384Y003601D01*
X001357Y003601D01*
X021506Y011101D02*
X021530Y011227D01*
X021479Y012015D01*
D19*
X000977Y013642D02*
X000977Y000883D01*
X014278Y000883D01*
X014310Y002960D01*
X012341Y002979D01*
X012341Y002345D01*
X012107Y002345D01*
X011972Y002211D01*
X011616Y002211D01*
X011481Y002345D01*
X011107Y002345D01*
X010972Y002211D01*
X010616Y002211D01*
X010481Y002345D01*
X010298Y002345D01*
X010298Y002936D01*
X008266Y002936D01*
X008258Y002912D01*
X008280Y002909D01*
X008300Y002901D01*
X008317Y002888D01*
X008330Y002871D01*
X008338Y002851D01*
X008341Y002830D01*
X008341Y001160D01*
X004010Y001160D01*
X002042Y003129D01*
X002042Y008247D01*
X003131Y009359D01*
X003131Y011661D01*
X003254Y011784D01*
X003982Y012512D01*
X006218Y012512D01*
X006266Y012561D01*
X006206Y012704D01*
X006206Y013475D01*
X006272Y013633D01*
X006281Y013642D01*
X000977Y013642D01*
X000977Y013572D02*
X006247Y013572D01*
X006206Y013473D02*
X000977Y013473D01*
X000977Y013375D02*
X006206Y013375D01*
X006206Y013276D02*
X000977Y013276D01*
X000977Y013178D02*
X006206Y013178D01*
X006206Y013079D02*
X000977Y013079D01*
X000977Y012981D02*
X006206Y012981D01*
X006206Y012882D02*
X000977Y012882D01*
X000977Y012784D02*
X006206Y012784D01*
X006214Y012685D02*
X000977Y012685D01*
X000977Y012587D02*
X006255Y012587D01*
X005807Y012092D02*
X005615Y011896D01*
X005609Y011902D01*
X004986Y011902D01*
X004910Y011826D01*
X004910Y011203D01*
X004923Y011190D01*
X003551Y009788D01*
X003551Y011487D01*
X004156Y012092D01*
X005807Y012092D01*
X005712Y011996D02*
X004060Y011996D01*
X003962Y011897D02*
X004982Y011897D01*
X004910Y011799D02*
X003863Y011799D01*
X003765Y011700D02*
X004910Y011700D01*
X004910Y011602D02*
X003666Y011602D01*
X003568Y011503D02*
X004910Y011503D01*
X004910Y011405D02*
X003551Y011405D01*
X003551Y011306D02*
X004910Y011306D01*
X004910Y011208D02*
X003551Y011208D01*
X003551Y011109D02*
X004845Y011109D01*
X004748Y011011D02*
X003551Y011011D01*
X003551Y010912D02*
X004652Y010912D01*
X004555Y010814D02*
X003551Y010814D01*
X003551Y010715D02*
X004459Y010715D01*
X004362Y010617D02*
X003551Y010617D01*
X003551Y010518D02*
X004266Y010518D01*
X004169Y010420D02*
X003551Y010420D01*
X003551Y010321D02*
X004073Y010321D01*
X003977Y010223D02*
X003551Y010223D01*
X003551Y010124D02*
X003880Y010124D01*
X003784Y010026D02*
X003551Y010026D01*
X003551Y009927D02*
X003687Y009927D01*
X003591Y009829D02*
X003551Y009829D01*
X003131Y009829D02*
X000977Y009829D01*
X000977Y009927D02*
X003131Y009927D01*
X003131Y010026D02*
X000977Y010026D01*
X000977Y010124D02*
X003131Y010124D01*
X003131Y010223D02*
X000977Y010223D01*
X000977Y010321D02*
X003131Y010321D01*
X003131Y010420D02*
X000977Y010420D01*
X000977Y010518D02*
X003131Y010518D01*
X003131Y010617D02*
X000977Y010617D01*
X000977Y010715D02*
X003131Y010715D01*
X003131Y010814D02*
X000977Y010814D01*
X000977Y010912D02*
X003131Y010912D01*
X003131Y011011D02*
X000977Y011011D01*
X000977Y011109D02*
X003131Y011109D01*
X003131Y011208D02*
X001634Y011208D01*
X001627Y011201D02*
X001741Y011316D01*
X001756Y011350D01*
X002301Y011371D01*
X002344Y011328D01*
X002457Y011281D01*
X002580Y011281D01*
X002693Y011328D01*
X002780Y011415D01*
X002827Y011528D01*
X002827Y011651D01*
X002780Y011764D01*
X002693Y011851D01*
X002580Y011898D01*
X002457Y011898D01*
X002344Y011851D01*
X002283Y011791D01*
X001744Y011770D01*
X001741Y011777D01*
X001627Y011891D01*
X001477Y011953D01*
X001315Y011953D01*
X001166Y011891D01*
X001051Y011777D01*
X000989Y011627D01*
X000989Y011465D01*
X001051Y011316D01*
X001166Y011201D01*
X001315Y011139D01*
X001477Y011139D01*
X001627Y011201D01*
X001732Y011306D02*
X002396Y011306D01*
X002641Y011306D02*
X003131Y011306D01*
X003131Y011405D02*
X002770Y011405D01*
X002816Y011503D02*
X003131Y011503D01*
X003131Y011602D02*
X002827Y011602D01*
X002806Y011700D02*
X003171Y011700D01*
X003269Y011799D02*
X002745Y011799D01*
X002581Y011897D02*
X003368Y011897D01*
X003466Y011996D02*
X000977Y011996D01*
X000977Y012094D02*
X003565Y012094D01*
X003663Y012193D02*
X000977Y012193D01*
X000977Y012291D02*
X003762Y012291D01*
X003860Y012390D02*
X000977Y012390D01*
X000977Y012488D02*
X003959Y012488D01*
X002456Y011897D02*
X001612Y011897D01*
X001719Y011799D02*
X002292Y011799D01*
X001180Y011897D02*
X000977Y011897D01*
X000977Y011799D02*
X001073Y011799D01*
X001019Y011700D02*
X000977Y011700D01*
X000977Y011602D02*
X000989Y011602D01*
X000977Y011503D02*
X000989Y011503D01*
X000977Y011405D02*
X001014Y011405D01*
X000977Y011306D02*
X001060Y011306D01*
X000977Y011208D02*
X001159Y011208D01*
X000977Y009730D02*
X003131Y009730D01*
X003131Y009632D02*
X000977Y009632D01*
X000977Y009533D02*
X003131Y009533D01*
X003131Y009435D02*
X000977Y009435D01*
X000977Y009336D02*
X003109Y009336D01*
X003012Y009238D02*
X000977Y009238D01*
X000977Y009139D02*
X002916Y009139D01*
X002819Y009041D02*
X000977Y009041D01*
X000977Y008942D02*
X001289Y008942D01*
X001315Y008953D02*
X001166Y008891D01*
X001051Y008777D01*
X000989Y008627D01*
X000989Y008465D01*
X001051Y008316D01*
X001166Y008201D01*
X001315Y008139D01*
X001477Y008139D01*
X001627Y008201D01*
X001741Y008316D01*
X001803Y008465D01*
X001803Y008627D01*
X001741Y008777D01*
X001627Y008891D01*
X001477Y008953D01*
X001315Y008953D01*
X001503Y008942D02*
X002723Y008942D01*
X002626Y008844D02*
X001674Y008844D01*
X001754Y008745D02*
X002530Y008745D01*
X002433Y008647D02*
X001795Y008647D01*
X001803Y008548D02*
X002337Y008548D01*
X002241Y008450D02*
X001797Y008450D01*
X001756Y008351D02*
X002144Y008351D01*
X002048Y008253D02*
X001679Y008253D01*
X001514Y008154D02*
X002042Y008154D01*
X002042Y008056D02*
X000977Y008056D01*
X000977Y008154D02*
X001278Y008154D01*
X001114Y008253D02*
X000977Y008253D01*
X000977Y008351D02*
X001036Y008351D01*
X000995Y008450D02*
X000977Y008450D01*
X000977Y008548D02*
X000989Y008548D01*
X000977Y008647D02*
X000997Y008647D01*
X000977Y008745D02*
X001038Y008745D01*
X000977Y008844D02*
X001118Y008844D01*
X000977Y007957D02*
X002042Y007957D01*
X002042Y007859D02*
X000977Y007859D01*
X000977Y007760D02*
X002042Y007760D01*
X002042Y007662D02*
X000977Y007662D01*
X000977Y007563D02*
X002042Y007563D01*
X002042Y007465D02*
X000977Y007465D01*
X000977Y007366D02*
X002042Y007366D01*
X002042Y007268D02*
X000977Y007268D01*
X000977Y007169D02*
X002042Y007169D01*
X002042Y007071D02*
X000977Y007071D01*
X000977Y006972D02*
X002042Y006972D01*
X002042Y006874D02*
X001644Y006874D01*
X001627Y006891D02*
X001741Y006777D01*
X001803Y006627D01*
X001803Y006465D01*
X001741Y006316D01*
X001627Y006201D01*
X001477Y006139D01*
X001315Y006139D01*
X001166Y006201D01*
X001051Y006316D01*
X000989Y006465D01*
X000989Y006627D01*
X001051Y006777D01*
X001166Y006891D01*
X001315Y006953D01*
X001477Y006953D01*
X001627Y006891D01*
X001742Y006775D02*
X002042Y006775D01*
X002042Y006677D02*
X001783Y006677D01*
X001803Y006578D02*
X002042Y006578D01*
X002042Y006480D02*
X001803Y006480D01*
X001769Y006381D02*
X002042Y006381D01*
X002042Y006283D02*
X001709Y006283D01*
X001587Y006184D02*
X002042Y006184D01*
X002042Y006086D02*
X000977Y006086D01*
X000977Y006184D02*
X001205Y006184D01*
X001084Y006283D02*
X000977Y006283D01*
X000977Y006381D02*
X001024Y006381D01*
X000989Y006480D02*
X000977Y006480D01*
X000977Y006578D02*
X000989Y006578D01*
X000977Y006677D02*
X001010Y006677D01*
X000977Y006775D02*
X001050Y006775D01*
X000977Y006874D02*
X001148Y006874D01*
X000977Y005987D02*
X002042Y005987D01*
X002042Y005889D02*
X000977Y005889D01*
X000977Y005790D02*
X002042Y005790D01*
X002042Y005692D02*
X000977Y005692D01*
X000977Y005593D02*
X002042Y005593D01*
X002042Y005495D02*
X000977Y005495D01*
X000977Y005396D02*
X002042Y005396D01*
X002042Y005298D02*
X000977Y005298D01*
X000977Y005199D02*
X002042Y005199D01*
X002042Y005101D02*
X000977Y005101D01*
X000977Y005002D02*
X002042Y005002D01*
X002042Y004904D02*
X001596Y004904D01*
X001627Y004891D02*
X001477Y004953D01*
X001315Y004953D01*
X001166Y004891D01*
X001051Y004777D01*
X000989Y004627D01*
X000989Y004465D01*
X001051Y004316D01*
X001166Y004201D01*
X001315Y004139D01*
X001477Y004139D01*
X001627Y004201D01*
X001741Y004316D01*
X001803Y004465D01*
X001803Y004627D01*
X001741Y004777D01*
X001627Y004891D01*
X001713Y004805D02*
X002042Y004805D01*
X002042Y004707D02*
X001770Y004707D01*
X001803Y004608D02*
X002042Y004608D01*
X002042Y004510D02*
X001803Y004510D01*
X001781Y004411D02*
X002042Y004411D01*
X002042Y004313D02*
X001739Y004313D01*
X001640Y004214D02*
X002042Y004214D01*
X002042Y004116D02*
X000977Y004116D01*
X000977Y004214D02*
X001152Y004214D01*
X001054Y004313D02*
X000977Y004313D01*
X000977Y004411D02*
X001011Y004411D01*
X000989Y004510D02*
X000977Y004510D01*
X000977Y004608D02*
X000989Y004608D01*
X000977Y004707D02*
X001022Y004707D01*
X000977Y004805D02*
X001080Y004805D01*
X000977Y004904D02*
X001196Y004904D01*
X000977Y004017D02*
X002042Y004017D01*
X002042Y003919D02*
X000977Y003919D01*
X000977Y003820D02*
X002042Y003820D01*
X002042Y003722D02*
X000977Y003722D01*
X000977Y003623D02*
X002042Y003623D01*
X002042Y003525D02*
X000977Y003525D01*
X000977Y003426D02*
X002042Y003426D01*
X002042Y003328D02*
X000977Y003328D01*
X000977Y003229D02*
X002042Y003229D01*
X002042Y003131D02*
X000977Y003131D01*
X000977Y003032D02*
X002138Y003032D01*
X002237Y002934D02*
X000977Y002934D01*
X000977Y002835D02*
X002335Y002835D01*
X002434Y002737D02*
X000977Y002737D01*
X000977Y002638D02*
X002532Y002638D01*
X002631Y002540D02*
X000977Y002540D01*
X000977Y002441D02*
X002729Y002441D01*
X002828Y002343D02*
X000977Y002343D01*
X000977Y002244D02*
X002926Y002244D01*
X003025Y002146D02*
X000977Y002146D01*
X000977Y002047D02*
X003123Y002047D01*
X003222Y001949D02*
X000977Y001949D01*
X000977Y001850D02*
X003320Y001850D01*
X003419Y001752D02*
X000977Y001752D01*
X000977Y001653D02*
X003517Y001653D01*
X003616Y001555D02*
X000977Y001555D01*
X000977Y001456D02*
X003714Y001456D01*
X003813Y001358D02*
X000977Y001358D01*
X000977Y001259D02*
X003911Y001259D01*
X004010Y001161D02*
X000977Y001161D01*
X000977Y001062D02*
X014281Y001062D01*
X014279Y000964D02*
X000977Y000964D01*
X008341Y001161D02*
X014282Y001161D01*
X014284Y001259D02*
X012021Y001259D01*
X011972Y001211D02*
X012224Y001463D01*
X012224Y001819D01*
X011972Y002071D01*
X011616Y002071D01*
X011364Y001819D01*
X011364Y001463D01*
X011616Y001211D01*
X011972Y001211D01*
X012119Y001358D02*
X014285Y001358D01*
X014287Y001456D02*
X012218Y001456D01*
X012224Y001555D02*
X014288Y001555D01*
X014290Y001653D02*
X012224Y001653D01*
X012224Y001752D02*
X014291Y001752D01*
X014293Y001850D02*
X012192Y001850D01*
X012094Y001949D02*
X014294Y001949D01*
X014296Y002047D02*
X011995Y002047D01*
X012006Y002244D02*
X014299Y002244D01*
X014297Y002146D02*
X008341Y002146D01*
X008341Y002244D02*
X010582Y002244D01*
X010483Y002343D02*
X008341Y002343D01*
X008341Y002441D02*
X010298Y002441D01*
X010298Y002540D02*
X008341Y002540D01*
X008341Y002638D02*
X010298Y002638D01*
X010298Y002737D02*
X008341Y002737D01*
X008340Y002835D02*
X010298Y002835D01*
X010298Y002934D02*
X008266Y002934D01*
X008341Y002047D02*
X010593Y002047D01*
X010616Y002071D02*
X010364Y001819D01*
X010364Y001463D01*
X010616Y001211D01*
X010972Y001211D01*
X011224Y001463D01*
X011224Y001819D01*
X010972Y002071D01*
X010616Y002071D01*
X010494Y001949D02*
X008341Y001949D01*
X008341Y001850D02*
X010396Y001850D01*
X010364Y001752D02*
X008341Y001752D01*
X008341Y001653D02*
X010364Y001653D01*
X010364Y001555D02*
X008341Y001555D01*
X008341Y001456D02*
X010370Y001456D01*
X010468Y001358D02*
X008341Y001358D01*
X008341Y001259D02*
X010567Y001259D01*
X011021Y001259D02*
X011567Y001259D01*
X011468Y001358D02*
X011119Y001358D01*
X011218Y001456D02*
X011370Y001456D01*
X011364Y001555D02*
X011224Y001555D01*
X011224Y001653D02*
X011364Y001653D01*
X011364Y001752D02*
X011224Y001752D01*
X011192Y001850D02*
X011396Y001850D01*
X011494Y001949D02*
X011094Y001949D01*
X010995Y002047D02*
X011593Y002047D01*
X011582Y002244D02*
X011006Y002244D01*
X011104Y002343D02*
X011483Y002343D01*
X012104Y002343D02*
X014300Y002343D01*
X014302Y002441D02*
X012341Y002441D01*
X012341Y002540D02*
X014303Y002540D01*
X014305Y002638D02*
X012341Y002638D01*
X012341Y002737D02*
X014306Y002737D01*
X014308Y002835D02*
X012341Y002835D01*
X012341Y002934D02*
X014309Y002934D01*
X006439Y007452D02*
X006438Y007453D01*
X006315Y007453D01*
X006202Y007406D01*
X006115Y007319D01*
X006068Y007206D01*
X006068Y007083D01*
X006115Y006970D01*
X006160Y006925D01*
X005216Y006925D01*
X005162Y006902D01*
X004986Y006902D01*
X004910Y006826D01*
X004910Y006658D01*
X004790Y006659D01*
X004741Y006777D01*
X004627Y006891D01*
X004477Y006953D01*
X004315Y006953D01*
X004166Y006891D01*
X004051Y006777D01*
X004008Y006674D01*
X003813Y006870D01*
X003814Y008117D01*
X003857Y008168D01*
X004312Y008140D01*
X004315Y008139D01*
X004337Y008139D01*
X004453Y008132D01*
X004473Y008139D01*
X004477Y008139D01*
X004497Y008147D01*
X004510Y008152D01*
X004774Y007916D01*
X006439Y007893D01*
X006439Y007452D01*
X006439Y007465D02*
X003813Y007465D01*
X003813Y007563D02*
X006439Y007563D01*
X006439Y007662D02*
X003814Y007662D01*
X003814Y007760D02*
X006439Y007760D01*
X006439Y007859D02*
X003814Y007859D01*
X003814Y007957D02*
X004728Y007957D01*
X004618Y008056D02*
X003814Y008056D01*
X003846Y008154D02*
X004080Y008154D01*
X004956Y008154D02*
X008555Y008154D01*
X008554Y008113D02*
X004955Y008113D01*
X004963Y008857D01*
X005062Y008869D01*
X008581Y008857D01*
X008554Y008113D01*
X008559Y008253D02*
X004957Y008253D01*
X004958Y008351D02*
X008562Y008351D01*
X008566Y008450D02*
X004959Y008450D01*
X004960Y008548D02*
X008570Y008548D01*
X008573Y008647D02*
X004961Y008647D01*
X004962Y008745D02*
X008577Y008745D01*
X008581Y008844D02*
X004963Y008844D01*
X003813Y007366D02*
X006162Y007366D01*
X006094Y007268D02*
X003813Y007268D01*
X003813Y007169D02*
X006068Y007169D01*
X006073Y007071D02*
X003813Y007071D01*
X003813Y006972D02*
X006114Y006972D01*
X004958Y006874D02*
X004644Y006874D01*
X004742Y006775D02*
X004910Y006775D01*
X004910Y006677D02*
X004783Y006677D01*
X004148Y006874D02*
X003813Y006874D01*
X003907Y006775D02*
X004050Y006775D01*
X004010Y006677D02*
X004006Y006677D01*
X005614Y011897D02*
X005616Y011897D01*
D20*
X004396Y008546D02*
X003676Y008589D01*
X003404Y008267D01*
X003400Y003956D01*
X004723Y002613D01*
X006770Y002617D01*
X006794Y002641D01*
X007794Y002641D01*
X007794Y001641D02*
X006794Y001641D01*
X006774Y001660D01*
X004467Y001652D01*
X002565Y003554D01*
X002565Y004393D01*
X002562Y004558D01*
X004357Y004566D02*
X004365Y004231D01*
X005018Y003582D01*
X019483Y003566D01*
X019975Y003105D01*
X019975Y002341D01*
X008298Y006515D02*
X005298Y006515D01*
X004357Y004566D02*
X004396Y004546D01*
D21*
X007794Y002641D02*
X007821Y002668D01*
M02*
